<svg width="260" height="224" viewBox="0 0 260 224" fill="none" xmlns="http://www.w3.org/2000/svg">
<rect width="260" height="224" rx="15" fill="white"/>
<path d="M151.12 47H97.8798C94.6325 47 92 49.6325 92 52.8798V106.12C92 109.368 94.6325 112 97.8798 112H151.12C154.368 112 157 109.368 157 106.12V52.8798C157 49.6325 154.368 47 151.12 47ZM112.114 103.125C112.114 104.07 111.348 104.836 110.403 104.836H103.119C102.174 104.836 101.408 104.07 101.408 103.125V72.5921C101.408 71.6471 102.174 70.881 103.119 70.881H110.403C111.348 70.881 112.114 71.6471 112.114 72.5921V103.125ZM106.761 68.0028C102.939 68.0028 99.8412 64.9048 99.8412 61.0832C99.8412 57.2617 102.939 54.1636 106.761 54.1636C110.582 54.1636 113.68 57.2617 113.68 61.0832C113.68 64.9048 110.583 68.0028 106.761 68.0028ZM150.178 103.263C150.178 104.132 149.474 104.836 148.605 104.836H140.789C139.92 104.836 139.216 104.132 139.216 103.263V88.9413C139.216 86.8048 139.843 79.5791 133.633 79.5791C128.816 79.5791 127.838 84.5249 127.642 86.7444V103.263C127.642 104.132 126.938 104.836 126.069 104.836H118.51C117.641 104.836 116.936 104.132 116.936 103.263V72.4543C116.936 71.5855 117.641 70.881 118.51 70.881H126.069C126.938 70.881 127.642 71.5855 127.642 72.4543V75.1181C129.428 72.4376 132.083 70.3687 137.735 70.3687C150.25 70.3687 150.178 82.0612 150.178 88.4857V103.263Z" fill="#0077B7"/>
<path d="M49.664 168.2L53.624 156.896H54.668L50.708 168.2H49.664ZM58.2342 167.072C57.5862 167.072 57.0062 166.932 56.4942 166.652C55.9902 166.372 55.5942 165.988 55.3062 165.5C55.0182 165.012 54.8742 164.452 54.8742 163.82C54.8742 163.188 55.0182 162.628 55.3062 162.14C55.5942 161.652 55.9902 161.272 56.4942 161C57.0062 160.72 57.5862 160.58 58.2342 160.58C58.8102 160.58 59.3222 160.696 59.7702 160.928C60.2262 161.152 60.5782 161.488 60.8262 161.936L59.9502 162.5C59.7422 162.188 59.4862 161.96 59.1822 161.816C58.8862 161.664 58.5662 161.588 58.2222 161.588C57.8062 161.588 57.4342 161.68 57.1062 161.864C56.7782 162.048 56.5182 162.308 56.3262 162.644C56.1342 162.972 56.0382 163.364 56.0382 163.82C56.0382 164.276 56.1342 164.672 56.3262 165.008C56.5182 165.344 56.7782 165.604 57.1062 165.788C57.4342 165.972 57.8062 166.064 58.2222 166.064C58.5662 166.064 58.8862 165.992 59.1822 165.848C59.4862 165.696 59.7422 165.464 59.9502 165.152L60.8262 165.704C60.5782 166.144 60.2262 166.484 59.7702 166.724C59.3222 166.956 58.8102 167.072 58.2342 167.072ZM65.9079 167.072C65.2679 167.072 64.6999 166.932 64.2039 166.652C63.7079 166.372 63.3159 165.988 63.0279 165.5C62.7399 165.004 62.5959 164.444 62.5959 163.82C62.5959 163.188 62.7399 162.628 63.0279 162.14C63.3159 161.652 63.7079 161.272 64.2039 161C64.6999 160.72 65.2679 160.58 65.9079 160.58C66.5399 160.58 67.1039 160.72 67.5999 161C68.1039 161.272 68.4959 161.652 68.7759 162.14C69.0639 162.62 69.2079 163.18 69.2079 163.82C69.2079 164.452 69.0639 165.012 68.7759 165.5C68.4959 165.988 68.1039 166.372 67.5999 166.652C67.1039 166.932 66.5399 167.072 65.9079 167.072ZM65.9079 166.064C66.3159 166.064 66.6799 165.972 66.9999 165.788C67.3279 165.604 67.5839 165.344 67.7679 165.008C67.9519 164.664 68.0439 164.268 68.0439 163.82C68.0439 163.364 67.9519 162.972 67.7679 162.644C67.5839 162.308 67.3279 162.048 66.9999 161.864C66.6799 161.68 66.3159 161.588 65.9079 161.588C65.4999 161.588 65.1359 161.68 64.8159 161.864C64.4959 162.048 64.2399 162.308 64.0479 162.644C63.8559 162.972 63.7599 163.364 63.7599 163.82C63.7599 164.268 63.8559 164.664 64.0479 165.008C64.2399 165.344 64.4959 165.604 64.8159 165.788C65.1359 165.972 65.4999 166.064 65.9079 166.064ZM79.7171 160.58C80.2291 160.58 80.6811 160.68 81.0731 160.88C81.4651 161.08 81.7691 161.384 81.9851 161.792C82.2091 162.2 82.3211 162.716 82.3211 163.34V167H81.1691V163.472C81.1691 162.856 81.0251 162.392 80.7371 162.08C80.4491 161.768 80.0451 161.612 79.5251 161.612C79.1411 161.612 78.8051 161.692 78.5171 161.852C78.2291 162.012 78.0051 162.248 77.8451 162.56C77.6931 162.872 77.6171 163.26 77.6171 163.724V167H76.4651V163.472C76.4651 162.856 76.3211 162.392 76.0331 162.08C75.7531 161.768 75.3491 161.612 74.8211 161.612C74.4451 161.612 74.1131 161.692 73.8251 161.852C73.5371 162.012 73.3131 162.248 73.1531 162.56C72.9931 162.872 72.9131 163.26 72.9131 163.724V167H71.7611V160.64H72.8651V162.332L72.6851 161.9C72.8851 161.484 73.1931 161.16 73.6091 160.928C74.0251 160.696 74.5091 160.58 75.0611 160.58C75.6691 160.58 76.1931 160.732 76.6331 161.036C77.0731 161.332 77.3611 161.784 77.4971 162.392L77.0291 162.2C77.2211 161.712 77.5571 161.32 78.0371 161.024C78.5171 160.728 79.0771 160.58 79.7171 160.58ZM88.7728 167.072C88.2448 167.072 87.7608 166.952 87.3208 166.712C86.8888 166.464 86.5408 166.1 86.2768 165.62C86.0208 165.14 85.8928 164.54 85.8928 163.82C85.8928 163.1 86.0168 162.5 86.2648 162.02C86.5208 161.54 86.8648 161.18 87.2968 160.94C87.7368 160.7 88.2288 160.58 88.7728 160.58C89.3968 160.58 89.9488 160.716 90.4288 160.988C90.9088 161.26 91.2888 161.64 91.5688 162.128C91.8488 162.608 91.9888 163.172 91.9888 163.82C91.9888 164.468 91.8488 165.036 91.5688 165.524C91.2888 166.012 90.9088 166.392 90.4288 166.664C89.9488 166.936 89.3968 167.072 88.7728 167.072ZM85.4008 169.328V160.64H86.5048V162.356L86.4328 163.832L86.5528 165.308V169.328H85.4008ZM88.6768 166.064C89.0848 166.064 89.4488 165.972 89.7688 165.788C90.0968 165.604 90.3528 165.344 90.5368 165.008C90.7288 164.664 90.8248 164.268 90.8248 163.82C90.8248 163.364 90.7288 162.972 90.5368 162.644C90.3528 162.308 90.0968 162.048 89.7688 161.864C89.4488 161.68 89.0848 161.588 88.6768 161.588C88.2768 161.588 87.9128 161.68 87.5848 161.864C87.2648 162.048 87.0088 162.308 86.8168 162.644C86.6328 162.972 86.5408 163.364 86.5408 163.82C86.5408 164.268 86.6328 164.664 86.8168 165.008C87.0088 165.344 87.2648 165.604 87.5848 165.788C87.9128 165.972 88.2768 166.064 88.6768 166.064ZM98.4298 167V165.656L98.3698 165.404V163.112C98.3698 162.624 98.2258 162.248 97.9378 161.984C97.6578 161.712 97.2338 161.576 96.6658 161.576C96.2898 161.576 95.9218 161.64 95.5618 161.768C95.2018 161.888 94.8978 162.052 94.6498 162.26L94.1698 161.396C94.4978 161.132 94.8898 160.932 95.3458 160.796C95.8098 160.652 96.2938 160.58 96.7978 160.58C97.6698 160.58 98.3418 160.792 98.8138 161.216C99.2858 161.64 99.5218 162.288 99.5218 163.16V167H98.4298ZM96.3418 167.072C95.8698 167.072 95.4538 166.992 95.0938 166.832C94.7418 166.672 94.4698 166.452 94.2778 166.172C94.0858 165.884 93.9898 165.56 93.9898 165.2C93.9898 164.856 94.0698 164.544 94.2298 164.264C94.3978 163.984 94.6658 163.76 95.0338 163.592C95.4098 163.424 95.9138 163.34 96.5458 163.34H98.5618V164.168H96.5938C96.0178 164.168 95.6298 164.264 95.4298 164.456C95.2298 164.648 95.1298 164.88 95.1298 165.152C95.1298 165.464 95.2538 165.716 95.5018 165.908C95.7498 166.092 96.0938 166.184 96.5338 166.184C96.9658 166.184 97.3418 166.088 97.6618 165.896C97.9898 165.704 98.2258 165.424 98.3698 165.056L98.5978 165.848C98.4458 166.224 98.1778 166.524 97.7938 166.748C97.4098 166.964 96.9258 167.072 96.3418 167.072ZM106.01 160.58C106.53 160.58 106.986 160.68 107.378 160.88C107.778 161.08 108.09 161.384 108.314 161.792C108.538 162.2 108.65 162.716 108.65 163.34V167H107.498V163.472C107.498 162.856 107.346 162.392 107.042 162.08C106.746 161.768 106.326 161.612 105.782 161.612C105.374 161.612 105.018 161.692 104.714 161.852C104.41 162.012 104.174 162.248 104.006 162.56C103.846 162.872 103.766 163.26 103.766 163.724V167H102.614V160.64H103.718V162.356L103.538 161.9C103.746 161.484 104.066 161.16 104.498 160.928C104.93 160.696 105.434 160.58 106.01 160.58ZM111.901 169.4C111.597 169.4 111.301 169.348 111.013 169.244C110.725 169.148 110.477 169.004 110.269 168.812L110.761 167.948C110.921 168.1 111.097 168.216 111.289 168.296C111.481 168.376 111.685 168.416 111.901 168.416C112.181 168.416 112.413 168.344 112.597 168.2C112.781 168.056 112.953 167.8 113.113 167.432L113.509 166.556L113.629 166.412L116.125 160.64H117.253L114.169 167.636C113.985 168.084 113.777 168.436 113.545 168.692C113.321 168.948 113.073 169.128 112.801 169.232C112.529 169.344 112.229 169.4 111.901 169.4ZM113.413 167.204L110.509 160.64H111.709L114.181 166.304L113.413 167.204ZM117.485 168.2L121.445 156.896H122.489L118.529 168.2H117.485ZM127.231 167V165.656L127.171 165.404V163.112C127.171 162.624 127.027 162.248 126.739 161.984C126.459 161.712 126.035 161.576 125.467 161.576C125.091 161.576 124.723 161.64 124.363 161.768C124.003 161.888 123.699 162.052 123.451 162.26L122.971 161.396C123.299 161.132 123.691 160.932 124.147 160.796C124.611 160.652 125.095 160.58 125.599 160.58C126.471 160.58 127.143 160.792 127.615 161.216C128.087 161.64 128.323 162.288 128.323 163.16V167H127.231ZM125.143 167.072C124.671 167.072 124.255 166.992 123.895 166.832C123.543 166.672 123.271 166.452 123.079 166.172C122.887 165.884 122.791 165.56 122.791 165.2C122.791 164.856 122.871 164.544 123.031 164.264C123.199 163.984 123.467 163.76 123.835 163.592C124.211 163.424 124.715 163.34 125.347 163.34H127.363V164.168H125.395C124.819 164.168 124.431 164.264 124.231 164.456C124.031 164.648 123.931 164.88 123.931 165.152C123.931 165.464 124.055 165.716 124.303 165.908C124.551 166.092 124.895 166.184 125.335 166.184C125.767 166.184 126.143 166.088 126.463 165.896C126.791 165.704 127.027 165.424 127.171 165.056L127.399 165.848C127.247 166.224 126.979 166.524 126.595 166.748C126.211 166.964 125.727 167.072 125.143 167.072ZM132.351 165.464L132.375 163.988L136.035 160.64H137.427L134.619 163.4L133.995 163.928L132.351 165.464ZM131.415 167V158.096H132.567V167H131.415ZM136.275 167L133.779 163.904L134.523 162.98L137.691 167H136.275ZM139.092 164.204V163.208H142.32V164.204H139.092ZM146.877 167.072C146.349 167.072 145.845 167 145.365 166.856C144.893 166.712 144.521 166.536 144.249 166.328L144.729 165.416C145.001 165.6 145.337 165.756 145.737 165.884C146.137 166.012 146.545 166.076 146.961 166.076C147.497 166.076 147.881 166 148.113 165.848C148.353 165.696 148.473 165.484 148.473 165.212C148.473 165.012 148.401 164.856 148.257 164.744C148.113 164.632 147.921 164.548 147.681 164.492C147.449 164.436 147.189 164.388 146.901 164.348C146.613 164.3 146.325 164.244 146.037 164.18C145.749 164.108 145.485 164.012 145.245 163.892C145.005 163.764 144.813 163.592 144.669 163.376C144.525 163.152 144.453 162.856 144.453 162.488C144.453 162.104 144.561 161.768 144.777 161.48C144.993 161.192 145.297 160.972 145.689 160.82C146.089 160.66 146.561 160.58 147.105 160.58C147.521 160.58 147.941 160.632 148.365 160.736C148.797 160.832 149.149 160.972 149.421 161.156L148.929 162.068C148.641 161.876 148.341 161.744 148.029 161.672C147.717 161.6 147.405 161.564 147.093 161.564C146.589 161.564 146.213 161.648 145.965 161.816C145.717 161.976 145.593 162.184 145.593 162.44C145.593 162.656 145.665 162.824 145.809 162.944C145.961 163.056 146.153 163.144 146.385 163.208C146.625 163.272 146.889 163.328 147.177 163.376C147.465 163.416 147.753 163.472 148.041 163.544C148.329 163.608 148.589 163.7 148.821 163.82C149.061 163.94 149.253 164.108 149.397 164.324C149.549 164.54 149.625 164.828 149.625 165.188C149.625 165.572 149.513 165.904 149.289 166.184C149.065 166.464 148.749 166.684 148.341 166.844C147.933 166.996 147.445 167.072 146.877 167.072ZM152.025 167V160.64H153.177V167H152.025ZM152.601 159.416C152.377 159.416 152.189 159.344 152.037 159.2C151.893 159.056 151.821 158.88 151.821 158.672C151.821 158.456 151.893 158.276 152.037 158.132C152.189 157.988 152.377 157.916 152.601 157.916C152.825 157.916 153.009 157.988 153.153 158.132C153.305 158.268 153.381 158.44 153.381 158.648C153.381 158.864 153.309 159.048 153.165 159.2C153.021 159.344 152.833 159.416 152.601 159.416ZM164.293 160.58C164.805 160.58 165.257 160.68 165.649 160.88C166.041 161.08 166.345 161.384 166.561 161.792C166.785 162.2 166.897 162.716 166.897 163.34V167H165.745V163.472C165.745 162.856 165.601 162.392 165.313 162.08C165.025 161.768 164.621 161.612 164.101 161.612C163.717 161.612 163.381 161.692 163.093 161.852C162.805 162.012 162.581 162.248 162.421 162.56C162.269 162.872 162.193 163.26 162.193 163.724V167H161.041V163.472C161.041 162.856 160.897 162.392 160.609 162.08C160.329 161.768 159.925 161.612 159.397 161.612C159.021 161.612 158.689 161.692 158.401 161.852C158.113 162.012 157.889 162.248 157.729 162.56C157.569 162.872 157.489 163.26 157.489 163.724V167H156.337V160.64H157.441V162.332L157.261 161.9C157.461 161.484 157.769 161.16 158.185 160.928C158.601 160.696 159.085 160.58 159.637 160.58C160.245 160.58 160.769 160.732 161.209 161.036C161.649 161.332 161.937 161.784 162.073 162.392L161.605 162.2C161.797 161.712 162.133 161.32 162.613 161.024C163.093 160.728 163.653 160.58 164.293 160.58ZM173.348 167.072C172.804 167.072 172.312 166.952 171.872 166.712C171.44 166.464 171.096 166.1 170.84 165.62C170.592 165.14 170.468 164.54 170.468 163.82C170.468 163.1 170.596 162.5 170.852 162.02C171.116 161.54 171.464 161.18 171.896 160.94C172.336 160.7 172.82 160.58 173.348 160.58C173.972 160.58 174.524 160.716 175.004 160.988C175.484 161.26 175.864 161.64 176.144 162.128C176.424 162.608 176.564 163.172 176.564 163.82C176.564 164.468 176.424 165.036 176.144 165.524C175.864 166.012 175.484 166.392 175.004 166.664C174.524 166.936 173.972 167.072 173.348 167.072ZM169.976 167V158.096H171.128V162.332L171.008 163.808L171.08 165.284V167H169.976ZM173.252 166.064C173.66 166.064 174.024 165.972 174.344 165.788C174.672 165.604 174.928 165.344 175.112 165.008C175.304 164.664 175.4 164.268 175.4 163.82C175.4 163.364 175.304 162.972 175.112 162.644C174.928 162.308 174.672 162.048 174.344 161.864C174.024 161.68 173.66 161.588 173.252 161.588C172.852 161.588 172.488 161.68 172.16 161.864C171.84 162.048 171.584 162.308 171.392 162.644C171.208 162.972 171.116 163.364 171.116 163.82C171.116 164.268 171.208 164.664 171.392 165.008C171.584 165.344 171.84 165.604 172.16 165.788C172.488 165.972 172.852 166.064 173.252 166.064ZM179.116 167V160.64H180.268V167H179.116ZM179.692 159.416C179.468 159.416 179.28 159.344 179.128 159.2C178.984 159.056 178.912 158.88 178.912 158.672C178.912 158.456 178.984 158.276 179.128 158.132C179.28 157.988 179.468 157.916 179.692 157.916C179.916 157.916 180.1 157.988 180.244 158.132C180.396 158.268 180.472 158.44 180.472 158.648C180.472 158.864 180.4 159.048 180.256 159.2C180.112 159.344 179.924 159.416 179.692 159.416ZM186.152 167.072C185.512 167.072 184.944 166.932 184.448 166.652C183.952 166.372 183.56 165.988 183.272 165.5C182.984 165.004 182.84 164.444 182.84 163.82C182.84 163.188 182.984 162.628 183.272 162.14C183.56 161.652 183.952 161.272 184.448 161C184.944 160.72 185.512 160.58 186.152 160.58C186.784 160.58 187.348 160.72 187.844 161C188.348 161.272 188.74 161.652 189.02 162.14C189.308 162.62 189.452 163.18 189.452 163.82C189.452 164.452 189.308 165.012 189.02 165.5C188.74 165.988 188.348 166.372 187.844 166.652C187.348 166.932 186.784 167.072 186.152 167.072ZM186.152 166.064C186.56 166.064 186.924 165.972 187.244 165.788C187.572 165.604 187.828 165.344 188.012 165.008C188.196 164.664 188.288 164.268 188.288 163.82C188.288 163.364 188.196 162.972 188.012 162.644C187.828 162.308 187.572 162.048 187.244 161.864C186.924 161.68 186.56 161.588 186.152 161.588C185.744 161.588 185.38 161.68 185.06 161.864C184.74 162.048 184.484 162.308 184.292 162.644C184.1 162.972 184.004 163.364 184.004 163.82C184.004 164.268 184.1 164.664 184.292 165.008C184.484 165.344 184.74 165.604 185.06 165.788C185.38 165.972 185.744 166.064 186.152 166.064ZM193.829 167.072C193.301 167.072 192.797 167 192.317 166.856C191.845 166.712 191.473 166.536 191.201 166.328L191.681 165.416C191.953 165.6 192.289 165.756 192.689 165.884C193.089 166.012 193.497 166.076 193.913 166.076C194.449 166.076 194.833 166 195.065 165.848C195.305 165.696 195.425 165.484 195.425 165.212C195.425 165.012 195.353 164.856 195.209 164.744C195.065 164.632 194.873 164.548 194.633 164.492C194.401 164.436 194.141 164.388 193.853 164.348C193.565 164.3 193.277 164.244 192.989 164.18C192.701 164.108 192.437 164.012 192.197 163.892C191.957 163.764 191.765 163.592 191.621 163.376C191.477 163.152 191.405 162.856 191.405 162.488C191.405 162.104 191.513 161.768 191.729 161.48C191.945 161.192 192.249 160.972 192.641 160.82C193.041 160.66 193.513 160.58 194.057 160.58C194.473 160.58 194.893 160.632 195.317 160.736C195.749 160.832 196.101 160.972 196.373 161.156L195.881 162.068C195.593 161.876 195.293 161.744 194.981 161.672C194.669 161.6 194.357 161.564 194.045 161.564C193.541 161.564 193.165 161.648 192.917 161.816C192.669 161.976 192.545 162.184 192.545 162.44C192.545 162.656 192.617 162.824 192.761 162.944C192.913 163.056 193.105 163.144 193.337 163.208C193.577 163.272 193.841 163.328 194.129 163.376C194.417 163.416 194.705 163.472 194.993 163.544C195.281 163.608 195.541 163.7 195.773 163.82C196.013 163.94 196.205 164.108 196.349 164.324C196.501 164.54 196.577 164.828 196.577 165.188C196.577 165.572 196.465 165.904 196.241 166.184C196.017 166.464 195.701 166.684 195.293 166.844C194.885 166.996 194.397 167.072 193.829 167.072ZM198.977 167V160.64H200.129V167H198.977ZM199.553 159.416C199.329 159.416 199.141 159.344 198.989 159.2C198.845 159.056 198.773 158.88 198.773 158.672C198.773 158.456 198.845 158.276 198.989 158.132C199.141 157.988 199.329 157.916 199.553 157.916C199.777 157.916 199.961 157.988 200.105 158.132C200.257 158.268 200.333 158.44 200.333 158.648C200.333 158.864 200.261 159.048 200.117 159.2C199.973 159.344 199.785 159.416 199.553 159.416ZM205.112 167.072C204.584 167.072 204.08 167 203.6 166.856C203.128 166.712 202.756 166.536 202.484 166.328L202.964 165.416C203.236 165.6 203.572 165.756 203.972 165.884C204.372 166.012 204.78 166.076 205.196 166.076C205.732 166.076 206.116 166 206.348 165.848C206.588 165.696 206.708 165.484 206.708 165.212C206.708 165.012 206.636 164.856 206.492 164.744C206.348 164.632 206.156 164.548 205.916 164.492C205.684 164.436 205.424 164.388 205.136 164.348C204.848 164.3 204.56 164.244 204.272 164.18C203.984 164.108 203.72 164.012 203.48 163.892C203.24 163.764 203.048 163.592 202.904 163.376C202.76 163.152 202.688 162.856 202.688 162.488C202.688 162.104 202.796 161.768 203.012 161.48C203.228 161.192 203.532 160.972 203.924 160.82C204.324 160.66 204.796 160.58 205.34 160.58C205.756 160.58 206.176 160.632 206.6 160.736C207.032 160.832 207.384 160.972 207.656 161.156L207.164 162.068C206.876 161.876 206.576 161.744 206.264 161.672C205.952 161.6 205.64 161.564 205.328 161.564C204.824 161.564 204.448 161.648 204.2 161.816C203.952 161.976 203.828 162.184 203.828 162.44C203.828 162.656 203.9 162.824 204.044 162.944C204.196 163.056 204.388 163.144 204.62 163.208C204.86 163.272 205.124 163.328 205.412 163.376C205.7 163.416 205.988 163.472 206.276 163.544C206.564 163.608 206.824 163.7 207.056 163.82C207.296 163.94 207.488 164.108 207.632 164.324C207.784 164.54 207.86 164.828 207.86 165.188C207.86 165.572 207.748 165.904 207.524 166.184C207.3 166.464 206.984 166.684 206.576 166.844C206.168 166.996 205.68 167.072 205.112 167.072Z" fill="black"/>
</svg>
