<svg width="260" height="224" viewBox="0 0 260 224" fill="none" xmlns="http://www.w3.org/2000/svg">
<rect width="260" height="224" rx="15" fill="white"/>
<g clip-path="url(#clip0_166_49)">
<path d="M118.254 35.0417C99.2391 35.9471 84.2335 51.783 84.2912 70.8196C84.3087 76.6177 85.7085 82.0904 88.1778 86.9259L84.3866 105.329C84.1815 106.324 85.0793 107.196 86.0682 106.962L104.101 102.689C108.734 104.997 113.937 106.33 119.445 106.414C138.88 106.711 155.085 91.2788 155.691 71.8507C156.341 51.0252 139.153 34.0464 118.254 35.0417ZM139.771 90.4801C134.49 95.7611 127.468 98.6695 120 98.6695C115.627 98.6695 111.44 97.6883 107.556 95.7534L105.045 94.5024L93.9888 97.1218L96.3159 85.8247L95.0787 83.402C93.0622 79.4527 92.0397 75.1822 92.0397 70.7091C92.0397 63.2406 94.948 56.2192 100.229 50.938C105.463 45.7042 112.599 42.7485 120.001 42.7485C127.469 42.7487 134.49 45.657 139.771 50.9379C145.052 56.2189 147.96 63.2402 147.961 70.7086C147.96 78.1105 145.005 85.2465 139.771 90.4801Z" fill="#7AD06D"/>
<path d="M137.33 78.4531L130.413 76.467C129.504 76.206 128.525 76.4639 127.862 77.1391L126.171 78.8624C125.457 79.5891 124.375 79.8226 123.431 79.4407C120.159 78.1165 113.276 71.9967 111.518 68.9357C111.011 68.0527 111.095 66.9487 111.718 66.143L113.195 64.2326C113.773 63.484 113.895 62.4788 113.513 61.6135L110.603 55.0318C109.906 53.4553 107.891 52.9964 106.575 54.1095C104.645 55.7422 102.354 58.2234 102.076 60.9721C101.585 65.8183 103.663 71.9273 111.522 79.2628C120.602 87.7373 127.873 88.8569 132.607 87.7101C135.293 87.0597 137.438 84.4523 138.793 82.3175C139.716 80.8619 138.987 78.9289 137.33 78.4531Z" fill="#7AD06D"/>
</g>
<path d="M68.988 163.428V158.172H69.996V163.428H68.988ZM66.804 161.28V160.332H72.18V161.28H66.804ZM77.2444 156.504C78.0044 156.504 78.6444 156.668 79.1644 156.996C79.6924 157.324 80.0924 157.8 80.3644 158.424C80.6364 159.04 80.7724 159.796 80.7724 160.692C80.7724 161.644 80.6044 162.448 80.2684 163.104C79.9324 163.76 79.4684 164.256 78.8764 164.592C78.2844 164.928 77.5924 165.096 76.8004 165.096C76.4084 165.096 76.0284 165.056 75.6604 164.976C75.3004 164.896 74.9844 164.772 74.7124 164.604L75.1684 163.668C75.3924 163.812 75.6404 163.916 75.9124 163.98C76.1924 164.036 76.4844 164.064 76.7884 164.064C77.6364 164.064 78.3124 163.8 78.8164 163.272C79.3204 162.736 79.5724 161.944 79.5724 160.896C79.5724 160.728 79.5644 160.528 79.5484 160.296C79.5324 160.064 79.4964 159.836 79.4404 159.612L79.8364 160.02C79.7244 160.388 79.5364 160.7 79.2724 160.956C79.0164 161.204 78.7044 161.392 78.3364 161.52C77.9764 161.64 77.5804 161.7 77.1484 161.7C76.5964 161.7 76.1044 161.596 75.6724 161.388C75.2404 161.18 74.9004 160.888 74.6524 160.512C74.4044 160.128 74.2804 159.676 74.2804 159.156C74.2804 158.612 74.4084 158.144 74.6644 157.752C74.9284 157.352 75.2844 157.044 75.7324 156.828C76.1884 156.612 76.6924 156.504 77.2444 156.504ZM77.2924 157.476C76.9324 157.476 76.6124 157.544 76.3324 157.68C76.0524 157.816 75.8324 158.004 75.6724 158.244C75.5204 158.484 75.4444 158.772 75.4444 159.108C75.4444 159.604 75.6164 160 75.9604 160.296C76.3044 160.584 76.7684 160.728 77.3524 160.728C77.7364 160.728 78.0724 160.656 78.3604 160.512C78.6564 160.368 78.8844 160.172 79.0444 159.924C79.2124 159.676 79.2964 159.4 79.2964 159.096C79.2964 158.8 79.2204 158.532 79.0684 158.292C78.9164 158.052 78.6924 157.856 78.3964 157.704C78.1004 157.552 77.7324 157.476 77.2924 157.476ZM84.3026 165V157.08L84.8186 157.644H82.4066V156.6H85.4906V165H84.3026ZM95.1947 156.504C95.9547 156.504 96.5947 156.668 97.1147 156.996C97.6427 157.324 98.0427 157.8 98.3147 158.424C98.5867 159.04 98.7227 159.796 98.7227 160.692C98.7227 161.644 98.5547 162.448 98.2187 163.104C97.8827 163.76 97.4187 164.256 96.8267 164.592C96.2347 164.928 95.5427 165.096 94.7507 165.096C94.3587 165.096 93.9787 165.056 93.6107 164.976C93.2507 164.896 92.9347 164.772 92.6627 164.604L93.1187 163.668C93.3427 163.812 93.5907 163.916 93.8627 163.98C94.1427 164.036 94.4347 164.064 94.7387 164.064C95.5867 164.064 96.2627 163.8 96.7667 163.272C97.2707 162.736 97.5227 161.944 97.5227 160.896C97.5227 160.728 97.5147 160.528 97.4987 160.296C97.4827 160.064 97.4467 159.836 97.3907 159.612L97.7867 160.02C97.6747 160.388 97.4867 160.7 97.2227 160.956C96.9667 161.204 96.6547 161.392 96.2867 161.52C95.9267 161.64 95.5307 161.7 95.0987 161.7C94.5467 161.7 94.0547 161.596 93.6227 161.388C93.1907 161.18 92.8507 160.888 92.6027 160.512C92.3547 160.128 92.2307 159.676 92.2307 159.156C92.2307 158.612 92.3587 158.144 92.6147 157.752C92.8787 157.352 93.2347 157.044 93.6827 156.828C94.1387 156.612 94.6427 156.504 95.1947 156.504ZM95.2427 157.476C94.8827 157.476 94.5627 157.544 94.2827 157.68C94.0027 157.816 93.7827 158.004 93.6227 158.244C93.4707 158.484 93.3947 158.772 93.3947 159.108C93.3947 159.604 93.5667 160 93.9107 160.296C94.2547 160.584 94.7187 160.728 95.3027 160.728C95.6867 160.728 96.0227 160.656 96.3107 160.512C96.6067 160.368 96.8347 160.172 96.9947 159.924C97.1627 159.676 97.2467 159.4 97.2467 159.096C97.2467 158.8 97.1707 158.532 97.0187 158.292C96.8667 158.052 96.6427 157.856 96.3467 157.704C96.0507 157.552 95.6827 157.476 95.2427 157.476ZM100.717 162.936V162.096L105.013 156.6H106.309L102.049 162.096L101.437 161.904H108.145V162.936H100.717ZM105.385 165V162.936L105.421 161.904V160.08H106.549V165H105.385ZM109.704 162.936V162.096L114 156.6H115.296L111.036 162.096L110.424 161.904H117.132V162.936H109.704ZM114.372 165V162.936L114.408 161.904V160.08H115.536V165H114.372ZM121.454 156.504C122.214 156.504 122.854 156.668 123.374 156.996C123.902 157.324 124.302 157.8 124.574 158.424C124.846 159.04 124.982 159.796 124.982 160.692C124.982 161.644 124.814 162.448 124.478 163.104C124.142 163.76 123.678 164.256 123.086 164.592C122.494 164.928 121.802 165.096 121.01 165.096C120.618 165.096 120.238 165.056 119.87 164.976C119.51 164.896 119.194 164.772 118.922 164.604L119.378 163.668C119.602 163.812 119.85 163.916 120.122 163.98C120.402 164.036 120.694 164.064 120.998 164.064C121.846 164.064 122.522 163.8 123.026 163.272C123.53 162.736 123.782 161.944 123.782 160.896C123.782 160.728 123.774 160.528 123.758 160.296C123.742 160.064 123.706 159.836 123.65 159.612L124.046 160.02C123.934 160.388 123.746 160.7 123.482 160.956C123.226 161.204 122.914 161.392 122.546 161.52C122.186 161.64 121.79 161.7 121.358 161.7C120.806 161.7 120.314 161.596 119.882 161.388C119.45 161.18 119.11 160.888 118.862 160.512C118.614 160.128 118.49 159.676 118.49 159.156C118.49 158.612 118.618 158.144 118.874 157.752C119.138 157.352 119.494 157.044 119.942 156.828C120.398 156.612 120.902 156.504 121.454 156.504ZM121.502 157.476C121.142 157.476 120.822 157.544 120.542 157.68C120.262 157.816 120.042 158.004 119.882 158.244C119.73 158.484 119.654 158.772 119.654 159.108C119.654 159.604 119.826 160 120.17 160.296C120.514 160.584 120.978 160.728 121.562 160.728C121.946 160.728 122.282 160.656 122.57 160.512C122.866 160.368 123.094 160.172 123.254 159.924C123.422 159.676 123.506 159.4 123.506 159.096C123.506 158.8 123.43 158.532 123.278 158.292C123.126 158.052 122.902 157.856 122.606 157.704C122.31 157.552 121.942 157.476 121.502 157.476ZM129.82 156.504C130.58 156.504 131.22 156.668 131.74 156.996C132.268 157.324 132.668 157.8 132.94 158.424C133.212 159.04 133.348 159.796 133.348 160.692C133.348 161.644 133.18 162.448 132.844 163.104C132.508 163.76 132.044 164.256 131.452 164.592C130.86 164.928 130.168 165.096 129.376 165.096C128.984 165.096 128.604 165.056 128.236 164.976C127.876 164.896 127.56 164.772 127.288 164.604L127.744 163.668C127.968 163.812 128.216 163.916 128.488 163.98C128.768 164.036 129.06 164.064 129.364 164.064C130.212 164.064 130.888 163.8 131.392 163.272C131.896 162.736 132.148 161.944 132.148 160.896C132.148 160.728 132.14 160.528 132.124 160.296C132.108 160.064 132.072 159.836 132.016 159.612L132.412 160.02C132.3 160.388 132.112 160.7 131.848 160.956C131.592 161.204 131.28 161.392 130.912 161.52C130.552 161.64 130.156 161.7 129.724 161.7C129.172 161.7 128.68 161.596 128.248 161.388C127.816 161.18 127.476 160.888 127.228 160.512C126.98 160.128 126.856 159.676 126.856 159.156C126.856 158.612 126.984 158.144 127.24 157.752C127.504 157.352 127.86 157.044 128.308 156.828C128.764 156.612 129.268 156.504 129.82 156.504ZM129.868 157.476C129.508 157.476 129.188 157.544 128.908 157.68C128.628 157.816 128.408 158.004 128.248 158.244C128.096 158.484 128.02 158.772 128.02 159.108C128.02 159.604 128.192 160 128.536 160.296C128.88 160.584 129.344 160.728 129.928 160.728C130.312 160.728 130.648 160.656 130.936 160.512C131.232 160.368 131.46 160.172 131.62 159.924C131.788 159.676 131.872 159.4 131.872 159.096C131.872 158.8 131.796 158.532 131.644 158.292C131.492 158.052 131.268 157.856 130.972 157.704C130.676 157.552 130.308 157.476 129.868 157.476ZM137.913 165.096C137.321 165.096 136.745 165.004 136.185 164.82C135.633 164.636 135.181 164.388 134.829 164.076L135.381 163.128C135.661 163.392 136.025 163.608 136.473 163.776C136.921 163.944 137.401 164.028 137.913 164.028C138.537 164.028 139.021 163.896 139.365 163.632C139.717 163.36 139.893 162.996 139.893 162.54C139.893 162.1 139.725 161.748 139.389 161.484C139.061 161.212 138.537 161.076 137.817 161.076H137.145V160.236L139.641 157.164L139.809 157.644H135.213V156.6H140.757V157.416L138.273 160.476L137.649 160.104H138.045C139.061 160.104 139.821 160.332 140.325 160.788C140.837 161.244 141.093 161.824 141.093 162.528C141.093 163 140.977 163.432 140.745 163.824C140.513 164.216 140.161 164.528 139.689 164.76C139.225 164.984 138.633 165.096 137.913 165.096ZM143.052 162.936V162.096L147.348 156.6H148.644L144.384 162.096L143.772 161.904H150.48V162.936H143.052ZM147.72 165V162.936L147.756 161.904V160.08H148.884V165H147.72ZM154.801 156.504C155.561 156.504 156.201 156.668 156.721 156.996C157.249 157.324 157.649 157.8 157.921 158.424C158.193 159.04 158.329 159.796 158.329 160.692C158.329 161.644 158.161 162.448 157.825 163.104C157.489 163.76 157.025 164.256 156.433 164.592C155.841 164.928 155.149 165.096 154.357 165.096C153.965 165.096 153.585 165.056 153.217 164.976C152.857 164.896 152.541 164.772 152.269 164.604L152.725 163.668C152.949 163.812 153.197 163.916 153.469 163.98C153.749 164.036 154.041 164.064 154.345 164.064C155.193 164.064 155.869 163.8 156.373 163.272C156.877 162.736 157.129 161.944 157.129 160.896C157.129 160.728 157.121 160.528 157.105 160.296C157.089 160.064 157.053 159.836 156.997 159.612L157.393 160.02C157.281 160.388 157.093 160.7 156.829 160.956C156.573 161.204 156.261 161.392 155.893 161.52C155.533 161.64 155.137 161.7 154.705 161.7C154.153 161.7 153.661 161.596 153.229 161.388C152.797 161.18 152.457 160.888 152.209 160.512C151.961 160.128 151.837 159.676 151.837 159.156C151.837 158.612 151.965 158.144 152.221 157.752C152.485 157.352 152.841 157.044 153.289 156.828C153.745 156.612 154.249 156.504 154.801 156.504ZM154.849 157.476C154.489 157.476 154.169 157.544 153.889 157.68C153.609 157.816 153.389 158.004 153.229 158.244C153.077 158.484 153.001 158.772 153.001 159.108C153.001 159.604 153.173 160 153.517 160.296C153.861 160.584 154.325 160.728 154.909 160.728C155.293 160.728 155.629 160.656 155.917 160.512C156.213 160.368 156.441 160.172 156.601 159.924C156.769 159.676 156.853 159.4 156.853 159.096C156.853 158.8 156.777 158.532 156.625 158.292C156.473 158.052 156.249 157.856 155.953 157.704C155.657 157.552 155.289 157.476 154.849 157.476ZM163.72 165.096C163.04 165.096 162.452 164.996 161.956 164.796C161.46 164.596 161.076 164.312 160.804 163.944C160.532 163.568 160.396 163.128 160.396 162.624C160.396 162.128 160.524 161.708 160.78 161.364C161.044 161.012 161.424 160.748 161.92 160.572C162.416 160.388 163.016 160.296 163.72 160.296C164.424 160.296 165.024 160.388 165.52 160.572C166.024 160.748 166.408 161.012 166.672 161.364C166.936 161.716 167.068 162.136 167.068 162.624C167.068 163.128 166.932 163.568 166.66 163.944C166.388 164.312 166 164.596 165.496 164.796C164.992 164.996 164.4 165.096 163.72 165.096ZM163.72 164.124C164.392 164.124 164.916 163.988 165.292 163.716C165.676 163.436 165.868 163.06 165.868 162.588C165.868 162.124 165.676 161.76 165.292 161.496C164.916 161.224 164.392 161.088 163.72 161.088C163.056 161.088 162.536 161.224 162.16 161.496C161.784 161.76 161.596 162.124 161.596 162.588C161.596 163.06 161.784 163.436 162.16 163.716C162.536 163.988 163.056 164.124 163.72 164.124ZM163.72 160.944C163.08 160.944 162.536 160.86 162.088 160.692C161.64 160.516 161.296 160.268 161.056 159.948C160.816 159.62 160.696 159.232 160.696 158.784C160.696 158.312 160.82 157.908 161.068 157.572C161.324 157.228 161.68 156.964 162.136 156.78C162.592 156.596 163.12 156.504 163.72 156.504C164.328 156.504 164.86 156.596 165.316 156.78C165.772 156.964 166.128 157.228 166.384 157.572C166.64 157.908 166.768 158.312 166.768 158.784C166.768 159.232 166.648 159.62 166.408 159.948C166.168 160.268 165.82 160.516 165.364 160.692C164.908 160.86 164.36 160.944 163.72 160.944ZM163.72 160.176C164.304 160.176 164.76 160.056 165.088 159.816C165.424 159.576 165.592 159.248 165.592 158.832C165.592 158.408 165.42 158.076 165.076 157.836C164.732 157.596 164.28 157.476 163.72 157.476C163.16 157.476 162.712 157.596 162.376 157.836C162.048 158.076 161.884 158.408 161.884 158.832C161.884 159.248 162.044 159.576 162.364 159.816C162.692 160.056 163.144 160.176 163.72 160.176ZM171.694 165.096C171.102 165.096 170.526 165.004 169.966 164.82C169.414 164.636 168.962 164.388 168.61 164.076L169.162 163.128C169.442 163.392 169.806 163.608 170.254 163.776C170.702 163.944 171.182 164.028 171.694 164.028C172.318 164.028 172.802 163.896 173.146 163.632C173.498 163.36 173.674 162.996 173.674 162.54C173.674 162.1 173.506 161.748 173.17 161.484C172.842 161.212 172.318 161.076 171.598 161.076H170.926V160.236L173.422 157.164L173.59 157.644H168.994V156.6H174.538V157.416L172.054 160.476L171.43 160.104H171.826C172.842 160.104 173.602 160.332 174.106 160.788C174.618 161.244 174.874 161.824 174.874 162.528C174.874 163 174.758 163.432 174.526 163.824C174.294 164.216 173.942 164.528 173.47 164.76C173.006 164.984 172.414 165.096 171.694 165.096Z" fill="black"/>
<defs>
<clipPath id="clip0_166_49">
<rect width="72" height="72" fill="white" transform="translate(84 35)"/>
</clipPath>
</defs>
</svg>
