<svg width="260" height="224" viewBox="0 0 260 224" fill="none" xmlns="http://www.w3.org/2000/svg">
<rect width="260" height="224" rx="15" fill="white"/>
<path d="M162.679 89.1808C165.846 92.1724 168.15 95.6842 162.823 101.537C157.783 107 154.04 107 149.576 107C138.634 107 122.508 94.5136 114.589 87.2298C106.958 80.0761 94 65.1184 94 54.583C94 50.681 95.8717 46.909 100.767 44.0476C105.806 41.056 110.558 41.1861 114.445 45.4783C117.613 48.9901 126.108 57.4445 120.78 63.9478C117.181 68.24 117.613 68.11 121.068 71.6218C124.668 75.2636 128.411 78.7755 133.883 83.1977C136.906 85.2788 136.33 85.669 141.801 82.2873C148.137 78.3853 159.511 86.5795 162.679 89.1808Z" fill="#00A6FF"/>
<path d="M77.988 160.428V155.172H78.996V160.428H77.988ZM75.804 158.28V157.332H81.18V158.28H75.804ZM86.2444 153.504C87.0044 153.504 87.6444 153.668 88.1644 153.996C88.6924 154.324 89.0924 154.8 89.3644 155.424C89.6364 156.04 89.7724 156.796 89.7724 157.692C89.7724 158.644 89.6044 159.448 89.2684 160.104C88.9324 160.76 88.4684 161.256 87.8764 161.592C87.2844 161.928 86.5924 162.096 85.8004 162.096C85.4084 162.096 85.0284 162.056 84.6604 161.976C84.3004 161.896 83.9844 161.772 83.7124 161.604L84.1684 160.668C84.3924 160.812 84.6404 160.916 84.9124 160.98C85.1924 161.036 85.4844 161.064 85.7884 161.064C86.6364 161.064 87.3124 160.8 87.8164 160.272C88.3204 159.736 88.5724 158.944 88.5724 157.896C88.5724 157.728 88.5644 157.528 88.5484 157.296C88.5324 157.064 88.4964 156.836 88.4404 156.612L88.8364 157.02C88.7244 157.388 88.5364 157.7 88.2724 157.956C88.0164 158.204 87.7044 158.392 87.3364 158.52C86.9764 158.64 86.5804 158.7 86.1484 158.7C85.5964 158.7 85.1044 158.596 84.6724 158.388C84.2404 158.18 83.9004 157.888 83.6524 157.512C83.4044 157.128 83.2804 156.676 83.2804 156.156C83.2804 155.612 83.4084 155.144 83.6644 154.752C83.9284 154.352 84.2844 154.044 84.7324 153.828C85.1884 153.612 85.6924 153.504 86.2444 153.504ZM86.2924 154.476C85.9324 154.476 85.6124 154.544 85.3324 154.68C85.0524 154.816 84.8324 155.004 84.6724 155.244C84.5204 155.484 84.4444 155.772 84.4444 156.108C84.4444 156.604 84.6164 157 84.9604 157.296C85.3044 157.584 85.7684 157.728 86.3524 157.728C86.7364 157.728 87.0724 157.656 87.3604 157.512C87.6564 157.368 87.8844 157.172 88.0444 156.924C88.2124 156.676 88.2964 156.4 88.2964 156.096C88.2964 155.8 88.2204 155.532 88.0684 155.292C87.9164 155.052 87.6924 154.856 87.3964 154.704C87.1004 154.552 86.7324 154.476 86.2924 154.476ZM93.3026 162V154.08L93.8186 154.644H91.4066V153.6H94.4906V162H93.3026ZM104.195 153.504C104.955 153.504 105.595 153.668 106.115 153.996C106.643 154.324 107.043 154.8 107.315 155.424C107.587 156.04 107.723 156.796 107.723 157.692C107.723 158.644 107.555 159.448 107.219 160.104C106.883 160.76 106.419 161.256 105.827 161.592C105.235 161.928 104.543 162.096 103.751 162.096C103.359 162.096 102.979 162.056 102.611 161.976C102.251 161.896 101.935 161.772 101.663 161.604L102.119 160.668C102.343 160.812 102.591 160.916 102.863 160.98C103.143 161.036 103.435 161.064 103.739 161.064C104.587 161.064 105.263 160.8 105.767 160.272C106.271 159.736 106.523 158.944 106.523 157.896C106.523 157.728 106.515 157.528 106.499 157.296C106.483 157.064 106.447 156.836 106.391 156.612L106.787 157.02C106.675 157.388 106.487 157.7 106.223 157.956C105.967 158.204 105.655 158.392 105.287 158.52C104.927 158.64 104.531 158.7 104.099 158.7C103.547 158.7 103.055 158.596 102.623 158.388C102.191 158.18 101.851 157.888 101.603 157.512C101.355 157.128 101.231 156.676 101.231 156.156C101.231 155.612 101.359 155.144 101.615 154.752C101.879 154.352 102.235 154.044 102.683 153.828C103.139 153.612 103.643 153.504 104.195 153.504ZM104.243 154.476C103.883 154.476 103.563 154.544 103.283 154.68C103.003 154.816 102.783 155.004 102.623 155.244C102.471 155.484 102.395 155.772 102.395 156.108C102.395 156.604 102.567 157 102.911 157.296C103.255 157.584 103.719 157.728 104.303 157.728C104.687 157.728 105.023 157.656 105.311 157.512C105.607 157.368 105.835 157.172 105.995 156.924C106.163 156.676 106.247 156.4 106.247 156.096C106.247 155.8 106.171 155.532 106.019 155.292C105.867 155.052 105.643 154.856 105.347 154.704C105.051 154.552 104.683 154.476 104.243 154.476ZM109.717 159.936V159.096L114.013 153.6H115.309L111.049 159.096L110.437 158.904H117.145V159.936H109.717ZM114.385 162V159.936L114.421 158.904V157.08H115.549V162H114.385ZM118.704 159.936V159.096L123 153.6H124.296L120.036 159.096L119.424 158.904H126.132V159.936H118.704ZM123.372 162V159.936L123.408 158.904V157.08H124.536V162H123.372ZM130.454 153.504C131.214 153.504 131.854 153.668 132.374 153.996C132.902 154.324 133.302 154.8 133.574 155.424C133.846 156.04 133.982 156.796 133.982 157.692C133.982 158.644 133.814 159.448 133.478 160.104C133.142 160.76 132.678 161.256 132.086 161.592C131.494 161.928 130.802 162.096 130.01 162.096C129.618 162.096 129.238 162.056 128.87 161.976C128.51 161.896 128.194 161.772 127.922 161.604L128.378 160.668C128.602 160.812 128.85 160.916 129.122 160.98C129.402 161.036 129.694 161.064 129.998 161.064C130.846 161.064 131.522 160.8 132.026 160.272C132.53 159.736 132.782 158.944 132.782 157.896C132.782 157.728 132.774 157.528 132.758 157.296C132.742 157.064 132.706 156.836 132.65 156.612L133.046 157.02C132.934 157.388 132.746 157.7 132.482 157.956C132.226 158.204 131.914 158.392 131.546 158.52C131.186 158.64 130.79 158.7 130.358 158.7C129.806 158.7 129.314 158.596 128.882 158.388C128.45 158.18 128.11 157.888 127.862 157.512C127.614 157.128 127.49 156.676 127.49 156.156C127.49 155.612 127.618 155.144 127.874 154.752C128.138 154.352 128.494 154.044 128.942 153.828C129.398 153.612 129.902 153.504 130.454 153.504ZM130.502 154.476C130.142 154.476 129.822 154.544 129.542 154.68C129.262 154.816 129.042 155.004 128.882 155.244C128.73 155.484 128.654 155.772 128.654 156.108C128.654 156.604 128.826 157 129.17 157.296C129.514 157.584 129.978 157.728 130.562 157.728C130.946 157.728 131.282 157.656 131.57 157.512C131.866 157.368 132.094 157.172 132.254 156.924C132.422 156.676 132.506 156.4 132.506 156.096C132.506 155.8 132.43 155.532 132.278 155.292C132.126 155.052 131.902 154.856 131.606 154.704C131.31 154.552 130.942 154.476 130.502 154.476ZM138.82 153.504C139.58 153.504 140.22 153.668 140.74 153.996C141.268 154.324 141.668 154.8 141.94 155.424C142.212 156.04 142.348 156.796 142.348 157.692C142.348 158.644 142.18 159.448 141.844 160.104C141.508 160.76 141.044 161.256 140.452 161.592C139.86 161.928 139.168 162.096 138.376 162.096C137.984 162.096 137.604 162.056 137.236 161.976C136.876 161.896 136.56 161.772 136.288 161.604L136.744 160.668C136.968 160.812 137.216 160.916 137.488 160.98C137.768 161.036 138.06 161.064 138.364 161.064C139.212 161.064 139.888 160.8 140.392 160.272C140.896 159.736 141.148 158.944 141.148 157.896C141.148 157.728 141.14 157.528 141.124 157.296C141.108 157.064 141.072 156.836 141.016 156.612L141.412 157.02C141.3 157.388 141.112 157.7 140.848 157.956C140.592 158.204 140.28 158.392 139.912 158.52C139.552 158.64 139.156 158.7 138.724 158.7C138.172 158.7 137.68 158.596 137.248 158.388C136.816 158.18 136.476 157.888 136.228 157.512C135.98 157.128 135.856 156.676 135.856 156.156C135.856 155.612 135.984 155.144 136.24 154.752C136.504 154.352 136.86 154.044 137.308 153.828C137.764 153.612 138.268 153.504 138.82 153.504ZM138.868 154.476C138.508 154.476 138.188 154.544 137.908 154.68C137.628 154.816 137.408 155.004 137.248 155.244C137.096 155.484 137.02 155.772 137.02 156.108C137.02 156.604 137.192 157 137.536 157.296C137.88 157.584 138.344 157.728 138.928 157.728C139.312 157.728 139.648 157.656 139.936 157.512C140.232 157.368 140.46 157.172 140.62 156.924C140.788 156.676 140.872 156.4 140.872 156.096C140.872 155.8 140.796 155.532 140.644 155.292C140.492 155.052 140.268 154.856 139.972 154.704C139.676 154.552 139.308 154.476 138.868 154.476ZM146.913 162.096C146.321 162.096 145.745 162.004 145.185 161.82C144.633 161.636 144.181 161.388 143.829 161.076L144.381 160.128C144.661 160.392 145.025 160.608 145.473 160.776C145.921 160.944 146.401 161.028 146.913 161.028C147.537 161.028 148.021 160.896 148.365 160.632C148.717 160.36 148.893 159.996 148.893 159.54C148.893 159.1 148.725 158.748 148.389 158.484C148.061 158.212 147.537 158.076 146.817 158.076H146.145V157.236L148.641 154.164L148.809 154.644H144.213V153.6H149.757V154.416L147.273 157.476L146.649 157.104H147.045C148.061 157.104 148.821 157.332 149.325 157.788C149.837 158.244 150.093 158.824 150.093 159.528C150.093 160 149.977 160.432 149.745 160.824C149.513 161.216 149.161 161.528 148.689 161.76C148.225 161.984 147.633 162.096 146.913 162.096ZM152.052 159.936V159.096L156.348 153.6H157.644L153.384 159.096L152.772 158.904H159.48V159.936H152.052ZM156.72 162V159.936L156.756 158.904V157.08H157.884V162H156.72ZM163.801 153.504C164.561 153.504 165.201 153.668 165.721 153.996C166.249 154.324 166.649 154.8 166.921 155.424C167.193 156.04 167.329 156.796 167.329 157.692C167.329 158.644 167.161 159.448 166.825 160.104C166.489 160.76 166.025 161.256 165.433 161.592C164.841 161.928 164.149 162.096 163.357 162.096C162.965 162.096 162.585 162.056 162.217 161.976C161.857 161.896 161.541 161.772 161.269 161.604L161.725 160.668C161.949 160.812 162.197 160.916 162.469 160.98C162.749 161.036 163.041 161.064 163.345 161.064C164.193 161.064 164.869 160.8 165.373 160.272C165.877 159.736 166.129 158.944 166.129 157.896C166.129 157.728 166.121 157.528 166.105 157.296C166.089 157.064 166.053 156.836 165.997 156.612L166.393 157.02C166.281 157.388 166.093 157.7 165.829 157.956C165.573 158.204 165.261 158.392 164.893 158.52C164.533 158.64 164.137 158.7 163.705 158.7C163.153 158.7 162.661 158.596 162.229 158.388C161.797 158.18 161.457 157.888 161.209 157.512C160.961 157.128 160.837 156.676 160.837 156.156C160.837 155.612 160.965 155.144 161.221 154.752C161.485 154.352 161.841 154.044 162.289 153.828C162.745 153.612 163.249 153.504 163.801 153.504ZM163.849 154.476C163.489 154.476 163.169 154.544 162.889 154.68C162.609 154.816 162.389 155.004 162.229 155.244C162.077 155.484 162.001 155.772 162.001 156.108C162.001 156.604 162.173 157 162.517 157.296C162.861 157.584 163.325 157.728 163.909 157.728C164.293 157.728 164.629 157.656 164.917 157.512C165.213 157.368 165.441 157.172 165.601 156.924C165.769 156.676 165.853 156.4 165.853 156.096C165.853 155.8 165.777 155.532 165.625 155.292C165.473 155.052 165.249 154.856 164.953 154.704C164.657 154.552 164.289 154.476 163.849 154.476ZM172.72 162.096C172.04 162.096 171.452 161.996 170.956 161.796C170.46 161.596 170.076 161.312 169.804 160.944C169.532 160.568 169.396 160.128 169.396 159.624C169.396 159.128 169.524 158.708 169.78 158.364C170.044 158.012 170.424 157.748 170.92 157.572C171.416 157.388 172.016 157.296 172.72 157.296C173.424 157.296 174.024 157.388 174.52 157.572C175.024 157.748 175.408 158.012 175.672 158.364C175.936 158.716 176.068 159.136 176.068 159.624C176.068 160.128 175.932 160.568 175.66 160.944C175.388 161.312 175 161.596 174.496 161.796C173.992 161.996 173.4 162.096 172.72 162.096ZM172.72 161.124C173.392 161.124 173.916 160.988 174.292 160.716C174.676 160.436 174.868 160.06 174.868 159.588C174.868 159.124 174.676 158.76 174.292 158.496C173.916 158.224 173.392 158.088 172.72 158.088C172.056 158.088 171.536 158.224 171.16 158.496C170.784 158.76 170.596 159.124 170.596 159.588C170.596 160.06 170.784 160.436 171.16 160.716C171.536 160.988 172.056 161.124 172.72 161.124ZM172.72 157.944C172.08 157.944 171.536 157.86 171.088 157.692C170.64 157.516 170.296 157.268 170.056 156.948C169.816 156.62 169.696 156.232 169.696 155.784C169.696 155.312 169.82 154.908 170.068 154.572C170.324 154.228 170.68 153.964 171.136 153.78C171.592 153.596 172.12 153.504 172.72 153.504C173.328 153.504 173.86 153.596 174.316 153.78C174.772 153.964 175.128 154.228 175.384 154.572C175.64 154.908 175.768 155.312 175.768 155.784C175.768 156.232 175.648 156.62 175.408 156.948C175.168 157.268 174.82 157.516 174.364 157.692C173.908 157.86 173.36 157.944 172.72 157.944ZM172.72 157.176C173.304 157.176 173.76 157.056 174.088 156.816C174.424 156.576 174.592 156.248 174.592 155.832C174.592 155.408 174.42 155.076 174.076 154.836C173.732 154.596 173.28 154.476 172.72 154.476C172.16 154.476 171.712 154.596 171.376 154.836C171.048 155.076 170.884 155.408 170.884 155.832C170.884 156.248 171.044 156.576 171.364 156.816C171.692 157.056 172.144 157.176 172.72 157.176ZM180.694 162.096C180.102 162.096 179.526 162.004 178.966 161.82C178.414 161.636 177.962 161.388 177.61 161.076L178.162 160.128C178.442 160.392 178.806 160.608 179.254 160.776C179.702 160.944 180.182 161.028 180.694 161.028C181.318 161.028 181.802 160.896 182.146 160.632C182.498 160.36 182.674 159.996 182.674 159.54C182.674 159.1 182.506 158.748 182.17 158.484C181.842 158.212 181.318 158.076 180.598 158.076H179.926V157.236L182.422 154.164L182.59 154.644H177.994V153.6H183.538V154.416L181.054 157.476L180.43 157.104H180.826C181.842 157.104 182.602 157.332 183.106 157.788C183.618 158.244 183.874 158.824 183.874 159.528C183.874 160 183.758 160.432 183.526 160.824C183.294 161.216 182.942 161.528 182.47 161.76C182.006 161.984 181.414 162.096 180.694 162.096Z" fill="black"/>
</svg>
