<svg width="260" height="224" viewBox="0 0 260 224" fill="none" xmlns="http://www.w3.org/2000/svg">
<rect width="260" height="224" rx="15" fill="white"/>
<path d="M55.3015 155.58C55.8135 155.58 56.2655 155.68 56.6575 155.88C57.0495 156.08 57.3535 156.384 57.5695 156.792C57.7935 157.2 57.9055 157.716 57.9055 158.34V162H56.7535V158.472C56.7535 157.856 56.6095 157.392 56.3215 157.08C56.0335 156.768 55.6295 156.612 55.1095 156.612C54.7255 156.612 54.3895 156.692 54.1015 156.852C53.8135 157.012 53.5895 157.248 53.4295 157.56C53.2775 157.872 53.2015 158.26 53.2015 158.724V162H52.0495V158.472C52.0495 157.856 51.9055 157.392 51.6175 157.08C51.3375 156.768 50.9335 156.612 50.4055 156.612C50.0295 156.612 49.6975 156.692 49.4095 156.852C49.1215 157.012 48.8975 157.248 48.7375 157.56C48.5775 157.872 48.4975 158.26 48.4975 158.724V162H47.3455V155.64H48.4495V157.332L48.2695 156.9C48.4695 156.484 48.7775 156.16 49.1935 155.928C49.6095 155.696 50.0935 155.58 50.6455 155.58C51.2535 155.58 51.7775 155.732 52.2175 156.036C52.6575 156.332 52.9455 156.784 53.0815 157.392L52.6135 157.2C52.8055 156.712 53.1415 156.32 53.6215 156.024C54.1015 155.728 54.6615 155.58 55.3015 155.58ZM64.9332 162V160.656L64.8732 160.404V158.112C64.8732 157.624 64.7292 157.248 64.4412 156.984C64.1612 156.712 63.7372 156.576 63.1692 156.576C62.7932 156.576 62.4252 156.64 62.0652 156.768C61.7052 156.888 61.4012 157.052 61.1532 157.26L60.6732 156.396C61.0012 156.132 61.3932 155.932 61.8492 155.796C62.3132 155.652 62.7972 155.58 63.3012 155.58C64.1732 155.58 64.8452 155.792 65.3172 156.216C65.7892 156.64 66.0252 157.288 66.0252 158.16V162H64.9332ZM62.8452 162.072C62.3732 162.072 61.9572 161.992 61.5972 161.832C61.2452 161.672 60.9732 161.452 60.7812 161.172C60.5892 160.884 60.4932 160.56 60.4932 160.2C60.4932 159.856 60.5732 159.544 60.7332 159.264C60.9012 158.984 61.1692 158.76 61.5372 158.592C61.9132 158.424 62.4172 158.34 63.0492 158.34H65.0652V159.168H63.0972C62.5212 159.168 62.1332 159.264 61.9332 159.456C61.7332 159.648 61.6332 159.88 61.6332 160.152C61.6332 160.464 61.7572 160.716 62.0052 160.908C62.2532 161.092 62.5972 161.184 63.0372 161.184C63.4692 161.184 63.8452 161.088 64.1652 160.896C64.4932 160.704 64.7292 160.424 64.8732 160.056L65.1012 160.848C64.9492 161.224 64.6812 161.524 64.2972 161.748C63.9132 161.964 63.4292 162.072 62.8452 162.072ZM69.1171 162V155.64H70.2211V157.368L70.1131 156.936C70.2891 156.496 70.5851 156.16 71.0011 155.928C71.4171 155.696 71.9291 155.58 72.5371 155.58V156.696C72.4891 156.688 72.4411 156.684 72.3931 156.684C72.3531 156.684 72.3131 156.684 72.2731 156.684C71.6571 156.684 71.1691 156.868 70.8091 157.236C70.4491 157.604 70.2691 158.136 70.2691 158.832V162H69.1171ZM75.8529 160.464L75.8769 158.988L79.5369 155.64H80.9289L78.1209 158.4L77.4969 158.928L75.8529 160.464ZM74.9169 162V153.096H76.0689V162H74.9169ZM79.7769 162L77.2809 158.904L78.0249 157.98L81.1929 162H79.7769ZM85.8456 162.072C85.1656 162.072 84.5656 161.932 84.0456 161.652C83.5336 161.372 83.1336 160.988 82.8456 160.5C82.5656 160.012 82.4256 159.452 82.4256 158.82C82.4256 158.188 82.5616 157.628 82.8336 157.14C83.1136 156.652 83.4936 156.272 83.9736 156C84.4616 155.72 85.0096 155.58 85.6176 155.58C86.2336 155.58 86.7776 155.716 87.2496 155.988C87.7216 156.26 88.0896 156.644 88.3536 157.14C88.6256 157.628 88.7616 158.2 88.7616 158.856C88.7616 158.904 88.7576 158.96 88.7496 159.024C88.7496 159.088 88.7456 159.148 88.7376 159.204H83.3256V158.376H88.1376L87.6696 158.664C87.6776 158.256 87.5936 157.892 87.4176 157.572C87.2416 157.252 86.9976 157.004 86.6856 156.828C86.3816 156.644 86.0256 156.552 85.6176 156.552C85.2176 156.552 84.8616 156.644 84.5496 156.828C84.2376 157.004 83.9936 157.256 83.8176 157.584C83.6416 157.904 83.5536 158.272 83.5536 158.688V158.88C83.5536 159.304 83.6496 159.684 83.8416 160.02C84.0416 160.348 84.3176 160.604 84.6696 160.788C85.0216 160.972 85.4256 161.064 85.8816 161.064C86.2576 161.064 86.5976 161 86.9016 160.872C87.2136 160.744 87.4856 160.552 87.7176 160.296L88.3536 161.04C88.0656 161.376 87.7056 161.632 87.2736 161.808C86.8496 161.984 86.3736 162.072 85.8456 162.072ZM93.5053 162.072C92.8653 162.072 92.3693 161.9 92.0173 161.556C91.6653 161.212 91.4893 160.72 91.4893 160.08V154.248H92.6413V160.032C92.6413 160.376 92.7253 160.64 92.8933 160.824C93.0693 161.008 93.3173 161.1 93.6373 161.1C93.9973 161.1 94.2973 161 94.5373 160.8L94.8973 161.628C94.7213 161.78 94.5093 161.892 94.2613 161.964C94.0213 162.036 93.7693 162.072 93.5053 162.072ZM90.4093 156.588V155.64H94.4653V156.588H90.4093ZM97.25 162V155.64H98.402V162H97.25ZM97.826 154.416C97.602 154.416 97.414 154.344 97.262 154.2C97.118 154.056 97.046 153.88 97.046 153.672C97.046 153.456 97.118 153.276 97.262 153.132C97.414 152.988 97.602 152.916 97.826 152.916C98.05 152.916 98.234 152.988 98.378 153.132C98.53 153.268 98.606 153.44 98.606 153.648C98.606 153.864 98.534 154.048 98.39 154.2C98.246 154.344 98.058 154.416 97.826 154.416ZM104.958 155.58C105.478 155.58 105.934 155.68 106.326 155.88C106.726 156.08 107.038 156.384 107.262 156.792C107.486 157.2 107.598 157.716 107.598 158.34V162H106.446V158.472C106.446 157.856 106.294 157.392 105.99 157.08C105.694 156.768 105.274 156.612 104.73 156.612C104.322 156.612 103.966 156.692 103.662 156.852C103.358 157.012 103.122 157.248 102.954 157.56C102.794 157.872 102.714 158.26 102.714 158.724V162H101.562V155.64H102.666V157.356L102.486 156.9C102.694 156.484 103.014 156.16 103.446 155.928C103.878 155.696 104.382 155.58 104.958 155.58ZM113.474 164.4C112.89 164.4 112.322 164.316 111.77 164.148C111.226 163.988 110.782 163.756 110.438 163.452L110.99 162.564C111.286 162.82 111.65 163.02 112.082 163.164C112.514 163.316 112.966 163.392 113.438 163.392C114.19 163.392 114.742 163.216 115.094 162.864C115.446 162.512 115.622 161.976 115.622 161.256V159.912L115.742 158.652L115.682 157.38V155.64H116.774V161.136C116.774 162.256 116.494 163.08 115.934 163.608C115.374 164.136 114.554 164.4 113.474 164.4ZM113.33 161.736C112.714 161.736 112.162 161.608 111.674 161.352C111.194 161.088 110.81 160.724 110.522 160.26C110.242 159.796 110.102 159.26 110.102 158.652C110.102 158.036 110.242 157.5 110.522 157.044C110.81 156.58 111.194 156.22 111.674 155.964C112.162 155.708 112.714 155.58 113.33 155.58C113.874 155.58 114.37 155.692 114.818 155.916C115.266 156.132 115.622 156.468 115.886 156.924C116.158 157.38 116.294 157.956 116.294 158.652C116.294 159.34 116.158 159.912 115.886 160.368C115.622 160.824 115.266 161.168 114.818 161.4C114.37 161.624 113.874 161.736 113.33 161.736ZM113.462 160.728C113.886 160.728 114.262 160.64 114.59 160.464C114.918 160.288 115.174 160.044 115.358 159.732C115.55 159.42 115.646 159.06 115.646 158.652C115.646 158.244 115.55 157.884 115.358 157.572C115.174 157.26 114.918 157.02 114.59 156.852C114.262 156.676 113.886 156.588 113.462 156.588C113.038 156.588 112.658 156.676 112.322 156.852C111.994 157.02 111.734 157.26 111.542 157.572C111.358 157.884 111.266 158.244 111.266 158.652C111.266 159.06 111.358 159.42 111.542 159.732C111.734 160.044 111.994 160.288 112.322 160.464C112.658 160.64 113.038 160.728 113.462 160.728ZM123.883 162V160.656L123.823 160.404V158.112C123.823 157.624 123.679 157.248 123.391 156.984C123.111 156.712 122.687 156.576 122.119 156.576C121.743 156.576 121.375 156.64 121.015 156.768C120.655 156.888 120.351 157.052 120.103 157.26L119.623 156.396C119.951 156.132 120.343 155.932 120.799 155.796C121.263 155.652 121.747 155.58 122.251 155.58C123.123 155.58 123.795 155.792 124.267 156.216C124.739 156.64 124.975 157.288 124.975 158.16V162H123.883ZM121.795 162.072C121.323 162.072 120.907 161.992 120.547 161.832C120.195 161.672 119.923 161.452 119.731 161.172C119.539 160.884 119.443 160.56 119.443 160.2C119.443 159.856 119.523 159.544 119.683 159.264C119.851 158.984 120.119 158.76 120.487 158.592C120.863 158.424 121.367 158.34 121.999 158.34H124.015V159.168H122.047C121.471 159.168 121.083 159.264 120.883 159.456C120.683 159.648 120.583 159.88 120.583 160.152C120.583 160.464 120.707 160.716 120.955 160.908C121.203 161.092 121.547 161.184 121.987 161.184C122.419 161.184 122.795 161.088 123.115 160.896C123.443 160.704 123.679 160.424 123.823 160.056L124.051 160.848C123.899 161.224 123.631 161.524 123.247 161.748C122.863 161.964 122.379 162.072 121.795 162.072ZM129.003 160.464L129.027 158.988L132.687 155.64H134.079L131.271 158.4L130.647 158.928L129.003 160.464ZM128.067 162V153.096H129.219V162H128.067ZM132.927 162L130.431 158.904L131.175 157.98L134.343 162H132.927ZM138.046 162.072C137.518 162.072 137.014 162 136.534 161.856C136.062 161.712 135.69 161.536 135.418 161.328L135.898 160.416C136.17 160.6 136.506 160.756 136.906 160.884C137.306 161.012 137.714 161.076 138.13 161.076C138.666 161.076 139.05 161 139.282 160.848C139.522 160.696 139.642 160.484 139.642 160.212C139.642 160.012 139.57 159.856 139.426 159.744C139.282 159.632 139.09 159.548 138.85 159.492C138.618 159.436 138.358 159.388 138.07 159.348C137.782 159.3 137.494 159.244 137.206 159.18C136.918 159.108 136.654 159.012 136.414 158.892C136.174 158.764 135.982 158.592 135.838 158.376C135.694 158.152 135.622 157.856 135.622 157.488C135.622 157.104 135.73 156.768 135.946 156.48C136.162 156.192 136.466 155.972 136.858 155.82C137.258 155.66 137.73 155.58 138.274 155.58C138.69 155.58 139.11 155.632 139.534 155.736C139.966 155.832 140.318 155.972 140.59 156.156L140.098 157.068C139.81 156.876 139.51 156.744 139.198 156.672C138.886 156.6 138.574 156.564 138.262 156.564C137.758 156.564 137.382 156.648 137.134 156.816C136.886 156.976 136.762 157.184 136.762 157.44C136.762 157.656 136.834 157.824 136.978 157.944C137.13 158.056 137.322 158.144 137.554 158.208C137.794 158.272 138.058 158.328 138.346 158.376C138.634 158.416 138.922 158.472 139.21 158.544C139.498 158.608 139.758 158.7 139.99 158.82C140.23 158.94 140.422 159.108 140.566 159.324C140.718 159.54 140.794 159.828 140.794 160.188C140.794 160.572 140.682 160.904 140.458 161.184C140.234 161.464 139.918 161.684 139.51 161.844C139.102 161.996 138.614 162.072 138.046 162.072ZM143.194 162V155.64H144.346V162H143.194ZM143.77 154.416C143.546 154.416 143.358 154.344 143.206 154.2C143.062 154.056 142.99 153.88 142.99 153.672C142.99 153.456 143.062 153.276 143.206 153.132C143.358 152.988 143.546 152.916 143.77 152.916C143.994 152.916 144.178 152.988 144.322 153.132C144.474 153.268 144.55 153.44 144.55 153.648C144.55 153.864 144.478 154.048 144.334 154.2C144.19 154.344 144.002 154.416 143.77 154.416ZM155.461 155.58C155.973 155.58 156.425 155.68 156.817 155.88C157.209 156.08 157.513 156.384 157.729 156.792C157.953 157.2 158.065 157.716 158.065 158.34V162H156.913V158.472C156.913 157.856 156.769 157.392 156.481 157.08C156.193 156.768 155.789 156.612 155.269 156.612C154.885 156.612 154.549 156.692 154.261 156.852C153.973 157.012 153.749 157.248 153.589 157.56C153.437 157.872 153.361 158.26 153.361 158.724V162H152.209V158.472C152.209 157.856 152.065 157.392 151.777 157.08C151.497 156.768 151.093 156.612 150.565 156.612C150.189 156.612 149.857 156.692 149.569 156.852C149.281 157.012 149.057 157.248 148.897 157.56C148.737 157.872 148.657 158.26 148.657 158.724V162H147.505V155.64H148.609V157.332L148.429 156.9C148.629 156.484 148.937 156.16 149.353 155.928C149.769 155.696 150.253 155.58 150.805 155.58C151.413 155.58 151.937 155.732 152.377 156.036C152.817 156.332 153.105 156.784 153.241 157.392L152.773 157.2C152.965 156.712 153.301 156.32 153.781 156.024C154.261 155.728 154.821 155.58 155.461 155.58ZM164.517 162.072C163.973 162.072 163.481 161.952 163.041 161.712C162.609 161.464 162.265 161.1 162.009 160.62C161.761 160.14 161.637 159.54 161.637 158.82C161.637 158.1 161.765 157.5 162.021 157.02C162.285 156.54 162.633 156.18 163.065 155.94C163.505 155.7 163.989 155.58 164.517 155.58C165.141 155.58 165.693 155.716 166.173 155.988C166.653 156.26 167.033 156.64 167.313 157.128C167.593 157.608 167.733 158.172 167.733 158.82C167.733 159.468 167.593 160.036 167.313 160.524C167.033 161.012 166.653 161.392 166.173 161.664C165.693 161.936 165.141 162.072 164.517 162.072ZM161.145 162V153.096H162.297V157.332L162.177 158.808L162.249 160.284V162H161.145ZM164.421 161.064C164.829 161.064 165.193 160.972 165.513 160.788C165.841 160.604 166.097 160.344 166.281 160.008C166.473 159.664 166.569 159.268 166.569 158.82C166.569 158.364 166.473 157.972 166.281 157.644C166.097 157.308 165.841 157.048 165.513 156.864C165.193 156.68 164.829 156.588 164.421 156.588C164.021 156.588 163.657 156.68 163.329 156.864C163.009 157.048 162.753 157.308 162.561 157.644C162.377 157.972 162.285 158.364 162.285 158.82C162.285 159.268 162.377 159.664 162.561 160.008C162.753 160.344 163.009 160.604 163.329 160.788C163.657 160.972 164.021 161.064 164.421 161.064ZM170.285 162V155.64H171.437V162H170.285ZM170.861 154.416C170.637 154.416 170.449 154.344 170.297 154.2C170.153 154.056 170.081 153.88 170.081 153.672C170.081 153.456 170.153 153.276 170.297 153.132C170.449 152.988 170.637 152.916 170.861 152.916C171.085 152.916 171.269 152.988 171.413 153.132C171.565 153.268 171.641 153.44 171.641 153.648C171.641 153.864 171.569 154.048 171.425 154.2C171.281 154.344 171.093 154.416 170.861 154.416ZM177.32 162.072C176.68 162.072 176.112 161.932 175.616 161.652C175.12 161.372 174.728 160.988 174.44 160.5C174.152 160.004 174.008 159.444 174.008 158.82C174.008 158.188 174.152 157.628 174.44 157.14C174.728 156.652 175.12 156.272 175.616 156C176.112 155.72 176.68 155.58 177.32 155.58C177.952 155.58 178.516 155.72 179.012 156C179.516 156.272 179.908 156.652 180.188 157.14C180.476 157.62 180.62 158.18 180.62 158.82C180.62 159.452 180.476 160.012 180.188 160.5C179.908 160.988 179.516 161.372 179.012 161.652C178.516 161.932 177.952 162.072 177.32 162.072ZM177.32 161.064C177.728 161.064 178.092 160.972 178.412 160.788C178.74 160.604 178.996 160.344 179.18 160.008C179.364 159.664 179.456 159.268 179.456 158.82C179.456 158.364 179.364 157.972 179.18 157.644C178.996 157.308 178.74 157.048 178.412 156.864C178.092 156.68 177.728 156.588 177.32 156.588C176.912 156.588 176.548 156.68 176.228 156.864C175.908 157.048 175.652 157.308 175.46 157.644C175.268 157.972 175.172 158.364 175.172 158.82C175.172 159.268 175.268 159.664 175.46 160.008C175.652 160.344 175.908 160.604 176.228 160.788C176.548 160.972 176.912 161.064 177.32 161.064ZM184.997 162.072C184.469 162.072 183.965 162 183.485 161.856C183.013 161.712 182.641 161.536 182.369 161.328L182.849 160.416C183.121 160.6 183.457 160.756 183.857 160.884C184.257 161.012 184.665 161.076 185.081 161.076C185.617 161.076 186.001 161 186.233 160.848C186.473 160.696 186.593 160.484 186.593 160.212C186.593 160.012 186.521 159.856 186.377 159.744C186.233 159.632 186.041 159.548 185.801 159.492C185.569 159.436 185.309 159.388 185.021 159.348C184.733 159.3 184.445 159.244 184.157 159.18C183.869 159.108 183.605 159.012 183.365 158.892C183.125 158.764 182.933 158.592 182.789 158.376C182.645 158.152 182.573 157.856 182.573 157.488C182.573 157.104 182.681 156.768 182.897 156.48C183.113 156.192 183.417 155.972 183.809 155.82C184.209 155.66 184.681 155.58 185.225 155.58C185.641 155.58 186.061 155.632 186.485 155.736C186.917 155.832 187.269 155.972 187.541 156.156L187.049 157.068C186.761 156.876 186.461 156.744 186.149 156.672C185.837 156.6 185.525 156.564 185.213 156.564C184.709 156.564 184.333 156.648 184.085 156.816C183.837 156.976 183.713 157.184 183.713 157.44C183.713 157.656 183.785 157.824 183.929 157.944C184.081 158.056 184.273 158.144 184.505 158.208C184.745 158.272 185.009 158.328 185.297 158.376C185.585 158.416 185.873 158.472 186.161 158.544C186.449 158.608 186.709 158.7 186.941 158.82C187.181 158.94 187.373 159.108 187.517 159.324C187.669 159.54 187.745 159.828 187.745 160.188C187.745 160.572 187.633 160.904 187.409 161.184C187.185 161.464 186.869 161.684 186.461 161.844C186.053 161.996 185.565 162.072 184.997 162.072ZM190.145 162V155.64H191.297V162H190.145ZM190.721 154.416C190.497 154.416 190.309 154.344 190.157 154.2C190.013 154.056 189.941 153.88 189.941 153.672C189.941 153.456 190.013 153.276 190.157 153.132C190.309 152.988 190.497 152.916 190.721 152.916C190.945 152.916 191.129 152.988 191.273 153.132C191.425 153.268 191.501 153.44 191.501 153.648C191.501 153.864 191.429 154.048 191.285 154.2C191.141 154.344 190.953 154.416 190.721 154.416ZM196.281 162.072C195.753 162.072 195.249 162 194.769 161.856C194.297 161.712 193.925 161.536 193.653 161.328L194.133 160.416C194.405 160.6 194.741 160.756 195.141 160.884C195.541 161.012 195.949 161.076 196.365 161.076C196.901 161.076 197.285 161 197.517 160.848C197.757 160.696 197.877 160.484 197.877 160.212C197.877 160.012 197.805 159.856 197.661 159.744C197.517 159.632 197.325 159.548 197.085 159.492C196.853 159.436 196.593 159.388 196.305 159.348C196.017 159.3 195.729 159.244 195.441 159.18C195.153 159.108 194.889 159.012 194.649 158.892C194.409 158.764 194.217 158.592 194.073 158.376C193.929 158.152 193.857 157.856 193.857 157.488C193.857 157.104 193.965 156.768 194.181 156.48C194.397 156.192 194.701 155.972 195.093 155.82C195.493 155.66 195.965 155.58 196.509 155.58C196.925 155.58 197.345 155.632 197.769 155.736C198.201 155.832 198.553 155.972 198.825 156.156L198.333 157.068C198.045 156.876 197.745 156.744 197.433 156.672C197.121 156.6 196.809 156.564 196.497 156.564C195.993 156.564 195.617 156.648 195.369 156.816C195.121 156.976 194.997 157.184 194.997 157.44C194.997 157.656 195.069 157.824 195.213 157.944C195.365 158.056 195.557 158.144 195.789 158.208C196.029 158.272 196.293 158.328 196.581 158.376C196.869 158.416 197.157 158.472 197.445 158.544C197.733 158.608 197.993 158.7 198.225 158.82C198.465 158.94 198.657 159.108 198.801 159.324C198.953 159.54 199.029 159.828 199.029 160.188C199.029 160.572 198.917 160.904 198.693 161.184C198.469 161.464 198.153 161.684 197.745 161.844C197.337 161.996 196.849 162.072 196.281 162.072ZM206.528 164.424C205.696 164.424 204.936 164.288 204.248 164.016C203.56 163.744 202.968 163.364 202.472 162.876C201.976 162.388 201.592 161.812 201.32 161.148C201.048 160.476 200.912 159.744 200.912 158.952C200.912 158.16 201.048 157.432 201.32 156.768C201.592 156.104 201.976 155.528 202.472 155.04C202.976 154.552 203.576 154.176 204.272 153.912C204.968 153.648 205.736 153.516 206.576 153.516C207.4 153.516 208.152 153.644 208.832 153.9C209.512 154.156 210.1 154.52 210.596 154.992C211.1 155.456 211.488 156.012 211.76 156.66C212.032 157.3 212.168 158.008 212.168 158.784C212.168 159.464 212.084 160.048 211.916 160.536C211.748 161.024 211.504 161.404 211.184 161.676C210.872 161.94 210.488 162.072 210.032 162.072C209.584 162.072 209.224 161.936 208.952 161.664C208.688 161.392 208.556 161.004 208.556 160.5V159.684L208.616 158.952L208.508 157.572V155.976H209.552V160.296C209.552 160.616 209.616 160.84 209.744 160.968C209.88 161.096 210.044 161.16 210.236 161.16C210.468 161.16 210.668 161.068 210.836 160.884C211.012 160.7 211.14 160.432 211.22 160.08C211.308 159.72 211.352 159.292 211.352 158.796C211.352 158.124 211.236 157.516 211.004 156.972C210.78 156.42 210.452 155.944 210.02 155.544C209.596 155.144 209.092 154.84 208.508 154.632C207.932 154.416 207.288 154.308 206.576 154.308C205.864 154.308 205.212 154.424 204.62 154.656C204.036 154.88 203.532 155.2 203.108 155.616C202.684 156.024 202.356 156.512 202.124 157.08C201.9 157.648 201.788 158.272 201.788 158.952C201.788 159.64 201.9 160.272 202.124 160.848C202.348 161.416 202.668 161.904 203.084 162.312C203.508 162.728 204.008 163.048 204.584 163.272C205.168 163.504 205.816 163.62 206.528 163.62C206.896 163.62 207.284 163.576 207.692 163.488C208.1 163.408 208.484 163.276 208.844 163.092L209.108 163.86C208.74 164.044 208.324 164.184 207.86 164.28C207.396 164.376 206.952 164.424 206.528 164.424ZM206.312 162.072C205.744 162.072 205.24 161.94 204.8 161.676C204.36 161.404 204.012 161.036 203.756 160.572C203.5 160.108 203.372 159.58 203.372 158.988C203.372 158.388 203.5 157.86 203.756 157.404C204.012 156.94 204.36 156.58 204.8 156.324C205.24 156.06 205.744 155.928 206.312 155.928C206.864 155.928 207.348 156.048 207.764 156.288C208.18 156.52 208.504 156.864 208.736 157.32C208.976 157.776 209.096 158.332 209.096 158.988C209.096 159.644 208.98 160.2 208.748 160.656C208.516 161.112 208.192 161.464 207.776 161.712C207.36 161.952 206.872 162.072 206.312 162.072ZM206.48 161.136C206.872 161.136 207.22 161.052 207.524 160.884C207.836 160.708 208.08 160.46 208.256 160.14C208.44 159.812 208.532 159.428 208.532 158.988C208.532 158.54 208.44 158.156 208.256 157.836C208.08 157.516 207.836 157.272 207.524 157.104C207.22 156.936 206.872 156.852 206.48 156.852C206.08 156.852 205.724 156.94 205.412 157.116C205.108 157.284 204.868 157.528 204.692 157.848C204.524 158.168 204.44 158.548 204.44 158.988C204.44 159.42 204.524 159.796 204.692 160.116C204.868 160.436 205.108 160.688 205.412 160.872C205.724 161.048 206.08 161.136 206.48 161.136ZM80.1899 177V170.64H81.2939V172.368L81.1859 171.936C81.3619 171.496 81.6579 171.16 82.0739 170.928C82.4899 170.696 83.0019 170.58 83.6099 170.58V171.696C83.5619 171.688 83.5139 171.684 83.4659 171.684C83.4259 171.684 83.3859 171.684 83.3459 171.684C82.7299 171.684 82.2419 171.868 81.8819 172.236C81.5219 172.604 81.3419 173.136 81.3419 173.832V177H80.1899ZM88.7631 177.072C88.0831 177.072 87.4831 176.932 86.9631 176.652C86.4511 176.372 86.0511 175.988 85.7631 175.5C85.4831 175.012 85.3431 174.452 85.3431 173.82C85.3431 173.188 85.4791 172.628 85.7511 172.14C86.0311 171.652 86.4111 171.272 86.8911 171C87.3791 170.72 87.9271 170.58 88.5351 170.58C89.1511 170.58 89.6951 170.716 90.1671 170.988C90.6391 171.26 91.0071 171.644 91.2711 172.14C91.5431 172.628 91.6791 173.2 91.6791 173.856C91.6791 173.904 91.6751 173.96 91.6671 174.024C91.6671 174.088 91.6631 174.148 91.6551 174.204H86.2431V173.376H91.0551L90.5871 173.664C90.5951 173.256 90.5111 172.892 90.3351 172.572C90.1591 172.252 89.9151 172.004 89.6031 171.828C89.2991 171.644 88.9431 171.552 88.5351 171.552C88.1351 171.552 87.7791 171.644 87.4671 171.828C87.1551 172.004 86.9111 172.256 86.7351 172.584C86.5591 172.904 86.4711 173.272 86.4711 173.688V173.88C86.4711 174.304 86.5671 174.684 86.7591 175.02C86.9591 175.348 87.2351 175.604 87.5871 175.788C87.9391 175.972 88.3431 176.064 88.7991 176.064C89.1751 176.064 89.5151 176 89.8191 175.872C90.1311 175.744 90.4031 175.552 90.6351 175.296L91.2711 176.04C90.9831 176.376 90.6231 176.632 90.1911 176.808C89.7671 176.984 89.2911 177.072 88.7631 177.072ZM96.8668 177.072C96.2508 177.072 95.6988 176.936 95.2108 176.664C94.7308 176.392 94.3508 176.012 94.0708 175.524C93.7908 175.036 93.6508 174.468 93.6508 173.82C93.6508 173.172 93.7908 172.608 94.0708 172.128C94.3508 171.64 94.7308 171.26 95.2108 170.988C95.6988 170.716 96.2508 170.58 96.8668 170.58C97.4028 170.58 97.8868 170.7 98.3188 170.94C98.7508 171.18 99.0948 171.54 99.3508 172.02C99.6148 172.5 99.7468 173.1 99.7468 173.82C99.7468 174.54 99.6188 175.14 99.3628 175.62C99.1148 176.1 98.7748 176.464 98.3428 176.712C97.9108 176.952 97.4188 177.072 96.8668 177.072ZM96.9628 176.064C97.3628 176.064 97.7228 175.972 98.0428 175.788C98.3708 175.604 98.6268 175.344 98.8108 175.008C99.0028 174.664 99.0988 174.268 99.0988 173.82C99.0988 173.364 99.0028 172.972 98.8108 172.644C98.6268 172.308 98.3708 172.048 98.0428 171.864C97.7228 171.68 97.3628 171.588 96.9628 171.588C96.5548 171.588 96.1908 171.68 95.8708 171.864C95.5508 172.048 95.2948 172.308 95.1028 172.644C94.9108 172.972 94.8148 173.364 94.8148 173.82C94.8148 174.268 94.9108 174.664 95.1028 175.008C95.2948 175.344 95.5508 175.604 95.8708 175.788C96.1908 175.972 96.5548 176.064 96.9628 176.064ZM99.1348 177V175.284L99.2068 173.808L99.0868 172.332V168.096H100.239V177H99.1348ZM103.378 177V170.64H104.53V177H103.378ZM103.954 169.416C103.73 169.416 103.542 169.344 103.39 169.2C103.246 169.056 103.174 168.88 103.174 168.672C103.174 168.456 103.246 168.276 103.39 168.132C103.542 167.988 103.73 167.916 103.954 167.916C104.178 167.916 104.362 167.988 104.506 168.132C104.658 168.268 104.734 168.44 104.734 168.648C104.734 168.864 104.662 169.048 104.518 169.2C104.374 169.344 104.186 169.416 103.954 169.416ZM107.858 177V170.076C107.858 169.452 108.038 168.956 108.398 168.588C108.766 168.212 109.286 168.024 109.958 168.024C110.206 168.024 110.442 168.056 110.666 168.12C110.898 168.176 111.094 168.268 111.254 168.396L110.906 169.272C110.786 169.176 110.65 169.104 110.498 169.056C110.346 169 110.186 168.972 110.018 168.972C109.682 168.972 109.426 169.068 109.25 169.26C109.074 169.444 108.986 169.72 108.986 170.088V170.94L109.01 171.468V177H107.858ZM106.778 171.588V170.64H110.834V171.588H106.778ZM113.06 177V170.076C113.06 169.452 113.24 168.956 113.6 168.588C113.968 168.212 114.488 168.024 115.16 168.024C115.408 168.024 115.644 168.056 115.868 168.12C116.1 168.176 116.296 168.268 116.456 168.396L116.108 169.272C115.988 169.176 115.852 169.104 115.7 169.056C115.548 169 115.388 168.972 115.22 168.972C114.884 168.972 114.628 169.068 114.452 169.26C114.276 169.444 114.188 169.72 114.188 170.088V170.94L114.212 171.468V177H113.06ZM111.98 171.588V170.64H116.036V171.588H111.98ZM126.039 170.58C126.551 170.58 127.003 170.68 127.395 170.88C127.787 171.08 128.091 171.384 128.307 171.792C128.531 172.2 128.643 172.716 128.643 173.34V177H127.491V173.472C127.491 172.856 127.347 172.392 127.059 172.08C126.771 171.768 126.367 171.612 125.847 171.612C125.463 171.612 125.127 171.692 124.839 171.852C124.551 172.012 124.327 172.248 124.167 172.56C124.015 172.872 123.939 173.26 123.939 173.724V177H122.787V173.472C122.787 172.856 122.643 172.392 122.355 172.08C122.075 171.768 121.671 171.612 121.143 171.612C120.767 171.612 120.435 171.692 120.147 171.852C119.859 172.012 119.635 172.248 119.475 172.56C119.315 172.872 119.235 173.26 119.235 173.724V177H118.083V170.64H119.187V172.332L119.007 171.9C119.207 171.484 119.515 171.16 119.931 170.928C120.347 170.696 120.831 170.58 121.383 170.58C121.991 170.58 122.515 170.732 122.955 171.036C123.395 171.332 123.683 171.784 123.819 172.392L123.351 172.2C123.543 171.712 123.879 171.32 124.359 171.024C124.839 170.728 125.399 170.58 126.039 170.58ZM135.67 177V175.656L135.61 175.404V173.112C135.61 172.624 135.466 172.248 135.178 171.984C134.898 171.712 134.474 171.576 133.906 171.576C133.53 171.576 133.162 171.64 132.802 171.768C132.442 171.888 132.138 172.052 131.89 172.26L131.41 171.396C131.738 171.132 132.13 170.932 132.586 170.796C133.05 170.652 133.534 170.58 134.038 170.58C134.91 170.58 135.582 170.792 136.054 171.216C136.526 171.64 136.762 172.288 136.762 173.16V177H135.67ZM133.582 177.072C133.11 177.072 132.694 176.992 132.334 176.832C131.982 176.672 131.71 176.452 131.518 176.172C131.326 175.884 131.23 175.56 131.23 175.2C131.23 174.856 131.31 174.544 131.47 174.264C131.638 173.984 131.906 173.76 132.274 173.592C132.65 173.424 133.154 173.34 133.786 173.34H135.802V174.168H133.834C133.258 174.168 132.87 174.264 132.67 174.456C132.47 174.648 132.37 174.88 132.37 175.152C132.37 175.464 132.494 175.716 132.742 175.908C132.99 176.092 133.334 176.184 133.774 176.184C134.206 176.184 134.582 176.088 134.902 175.896C135.23 175.704 135.466 175.424 135.61 175.056L135.838 175.848C135.686 176.224 135.418 176.524 135.034 176.748C134.65 176.964 134.166 177.072 133.582 177.072ZM139.854 177V170.64H141.006V177H139.854ZM140.43 169.416C140.206 169.416 140.018 169.344 139.866 169.2C139.722 169.056 139.65 168.88 139.65 168.672C139.65 168.456 139.722 168.276 139.866 168.132C140.018 167.988 140.206 167.916 140.43 167.916C140.654 167.916 140.838 167.988 140.982 168.132C141.134 168.268 141.21 168.44 141.21 168.648C141.21 168.864 141.138 169.048 140.994 169.2C140.85 169.344 140.662 169.416 140.43 169.416ZM144.166 177V168.096H145.318V177H144.166ZM148.753 177.072C148.529 177.072 148.337 176.996 148.177 176.844C148.017 176.684 147.937 176.484 147.937 176.244C147.937 176.004 148.017 175.808 148.177 175.656C148.337 175.504 148.529 175.428 148.753 175.428C148.969 175.428 149.153 175.504 149.305 175.656C149.465 175.808 149.545 176.004 149.545 176.244C149.545 176.484 149.465 176.684 149.305 176.844C149.153 176.996 148.969 177.072 148.753 177.072ZM154.788 177.072C154.14 177.072 153.56 176.932 153.048 176.652C152.544 176.372 152.148 175.988 151.86 175.5C151.572 175.012 151.428 174.452 151.428 173.82C151.428 173.188 151.572 172.628 151.86 172.14C152.148 171.652 152.544 171.272 153.048 171C153.56 170.72 154.14 170.58 154.788 170.58C155.364 170.58 155.876 170.696 156.324 170.928C156.78 171.152 157.132 171.488 157.38 171.936L156.504 172.5C156.296 172.188 156.04 171.96 155.736 171.816C155.44 171.664 155.12 171.588 154.776 171.588C154.36 171.588 153.988 171.68 153.66 171.864C153.332 172.048 153.072 172.308 152.88 172.644C152.688 172.972 152.592 173.364 152.592 173.82C152.592 174.276 152.688 174.672 152.88 175.008C153.072 175.344 153.332 175.604 153.66 175.788C153.988 175.972 154.36 176.064 154.776 176.064C155.12 176.064 155.44 175.992 155.736 175.848C156.04 175.696 156.296 175.464 156.504 175.152L157.38 175.704C157.132 176.144 156.78 176.484 156.324 176.724C155.876 176.956 155.364 177.072 154.788 177.072ZM162.461 177.072C161.821 177.072 161.253 176.932 160.757 176.652C160.261 176.372 159.869 175.988 159.581 175.5C159.293 175.004 159.149 174.444 159.149 173.82C159.149 173.188 159.293 172.628 159.581 172.14C159.869 171.652 160.261 171.272 160.757 171C161.253 170.72 161.821 170.58 162.461 170.58C163.093 170.58 163.657 170.72 164.153 171C164.657 171.272 165.049 171.652 165.329 172.14C165.617 172.62 165.761 173.18 165.761 173.82C165.761 174.452 165.617 175.012 165.329 175.5C165.049 175.988 164.657 176.372 164.153 176.652C163.657 176.932 163.093 177.072 162.461 177.072ZM162.461 176.064C162.869 176.064 163.233 175.972 163.553 175.788C163.881 175.604 164.137 175.344 164.321 175.008C164.505 174.664 164.597 174.268 164.597 173.82C164.597 173.364 164.505 172.972 164.321 172.644C164.137 172.308 163.881 172.048 163.553 171.864C163.233 171.68 162.869 171.588 162.461 171.588C162.053 171.588 161.689 171.68 161.369 171.864C161.049 172.048 160.793 172.308 160.601 172.644C160.409 172.972 160.313 173.364 160.313 173.82C160.313 174.268 160.409 174.664 160.601 175.008C160.793 175.344 161.049 175.604 161.369 175.788C161.689 175.972 162.053 176.064 162.461 176.064ZM176.27 170.58C176.782 170.58 177.234 170.68 177.626 170.88C178.018 171.08 178.322 171.384 178.538 171.792C178.762 172.2 178.874 172.716 178.874 173.34V177H177.722V173.472C177.722 172.856 177.578 172.392 177.29 172.08C177.002 171.768 176.598 171.612 176.078 171.612C175.694 171.612 175.358 171.692 175.07 171.852C174.782 172.012 174.558 172.248 174.398 172.56C174.246 172.872 174.17 173.26 174.17 173.724V177H173.018V173.472C173.018 172.856 172.874 172.392 172.586 172.08C172.306 171.768 171.902 171.612 171.374 171.612C170.998 171.612 170.666 171.692 170.378 171.852C170.09 172.012 169.866 172.248 169.706 172.56C169.546 172.872 169.466 173.26 169.466 173.724V177H168.314V170.64H169.418V172.332L169.238 171.9C169.438 171.484 169.746 171.16 170.162 170.928C170.578 170.696 171.062 170.58 171.614 170.58C172.222 170.58 172.746 170.732 173.186 171.036C173.626 171.332 173.914 171.784 174.05 172.392L173.582 172.2C173.774 171.712 174.11 171.32 174.59 171.024C175.07 170.728 175.63 170.58 176.27 170.58Z" fill="black"/>
<g clip-path="url(#clip0_166_35)">
<path d="M170.21 107.145H89.773C86.6306 107.145 84 104.55 84 101.199V43.128C84.003 41.5319 84.6124 40.0021 85.6946 38.874C86.7767 37.7459 88.2434 37.1116 89.773 37.11H170.21C173.352 37.11 175.983 39.81 175.983 43.134V101.124C175.911 104.556 173.352 107.145 170.21 107.145Z" fill="#F2F2F2"/>
<path opacity="0.1" d="M95.4998 107.145L129.914 80.865L130.132 79.341L94.6373 52.734L94.5654 105.849L95.4998 107.145Z" fill="#221F1F"/>
<path d="M89.773 107.145C86.5875 107.145 84 104.55 84 101.199V43.05C84 39.696 86.5875 39.09 89.773 39.09C92.9585 39.09 95.546 39.78 95.546 43.05V107.142L89.773 107.145Z" fill="#D44C3D"/>
<path d="M89.7731 40.002C93.8642 40.002 94.6692 41.298 94.6692 43.05V106.302H89.7731C87.0706 106.302 84.877 104.016 84.877 101.193V43.05C84.8051 41.25 85.682 40.002 89.7731 40.002ZM89.7731 39.162C86.5876 39.165 84.0001 39.849 84.0001 43.05V101.118C83.9892 101.912 84.1312 102.701 84.4174 103.437C84.7037 104.173 85.1286 104.841 85.6668 105.403C86.2051 105.964 86.8458 106.408 87.5511 106.706C88.2564 107.005 89.012 107.153 89.7731 107.142H95.5461V43.05C95.5001 39.774 92.9873 39.162 89.7731 39.162ZM170.21 40.002C173.936 40.002 175.106 40.764 175.106 42.9V101.274C175.106 104.094 172.915 106.383 170.21 106.383H165.314V42.9C165.242 40.689 166.484 40.002 170.21 40.002ZM170.21 39.162C166.996 39.162 164.437 39.618 164.437 42.897V107.217H170.21C173.424 107.217 175.983 104.517 175.983 101.193V42.822C175.911 39.543 173.352 39.162 170.21 39.162Z" fill="#D44C3D"/>
<path d="M170.21 107.145H164.437V42.9C164.437 39.546 167.025 39.165 170.21 39.165C173.396 39.165 175.983 39.621 175.983 42.9V101.274C175.951 102.847 175.327 104.344 174.248 105.442C173.168 106.54 171.718 107.152 170.21 107.145Z" fill="#D44C3D"/>
<path opacity="0.08" d="M145.588 107.145L84.5117 45.6L87.726 46.971L130.276 78.912L175.98 43.89V101.274C175.977 102.061 175.825 102.839 175.533 103.564C175.241 104.289 174.814 104.947 174.278 105.499C173.741 106.052 173.105 106.488 172.407 106.783C171.708 107.079 170.961 107.227 170.207 107.22L145.588 107.145Z" fill="#221F1F"/>
<path d="M129.886 80.94L86.4845 48.084C83.897 46.104 83.1955 42.294 85.0959 39.624C86.9963 36.954 90.6446 36.345 93.2781 38.328L129.955 66.153L166.849 37.95C169.437 35.97 172.988 36.579 174.885 39.321C176.783 42.021 176.199 45.726 173.571 47.706L129.886 80.94Z" fill="#D44C3D"/>
<path d="M170.21 37.7166C171.745 37.7166 173.277 38.4786 174.229 39.8526C175.764 42.1386 175.322 45.3426 173.137 47.0526L129.885 79.8756L86.9959 47.4006C84.8051 45.7206 84.2186 42.4416 85.7251 40.2006C86.602 38.8296 88.1401 37.9896 89.8162 37.9896C90.9087 37.9896 91.9351 38.2956 92.7372 38.9796L129.336 66.7296L129.848 67.0356L130.359 66.7296L167.217 38.5506C168.166 38.0166 169.114 37.7106 170.213 37.7106L170.21 37.7166ZM170.21 36.8016C169.04 36.8016 167.795 37.1076 166.846 37.9416L129.954 66.1506L93.2059 38.2506C92.2571 37.4886 91.0151 37.1106 89.7731 37.1106C87.9475 37.1856 86.1219 38.0256 85.0236 39.6306C83.198 42.3306 83.9311 46.0356 86.4841 48.0156L129.885 80.9406L173.571 47.7006C174.8 46.7619 175.626 45.357 175.872 43.7886C176.118 42.2202 175.763 40.6139 174.885 39.3156C173.714 37.7136 171.964 36.7956 170.21 36.7956V36.8016Z" fill="#D44C3D"/>
</g>
<defs>
<clipPath id="clip0_166_35">
<rect width="92" height="96" fill="white" transform="translate(84 24)"/>
</clipPath>
</defs>
</svg>
