<svg width="23" height="24" viewBox="0 0 23 24" fill="none" xmlns="http://www.w3.org/2000/svg">
<g clip-path="url(#clip0_29_66)">
<path d="M21.5524 20.7862H1.44325C0.657656 20.7862 0 20.1375 0 19.2997V4.782C0.000760823 4.38296 0.153107 4.00052 0.423645 3.7185C0.694184 3.43648 1.06084 3.27789 1.44325 3.2775H21.5524C22.338 3.2775 22.9957 3.9525 22.9957 4.7835V19.281C22.9777 20.139 22.338 20.7862 21.5524 20.7862Z" fill="#F2F2F2"/>
<path opacity="0.1" d="M2.87501 20.7863L11.4784 14.2163L11.5331 13.8353L2.65939 7.1835L2.64142 20.4623L2.87501 20.7863Z" fill="#221F1F"/>
<path d="M1.44325 20.7862C0.646875 20.7862 0 20.1375 0 19.2997V4.76249C0 3.92399 0.646875 3.77249 1.44325 3.77249C2.23962 3.77249 2.8865 3.94499 2.8865 4.76249V20.7855L1.44325 20.7862Z" fill="#D44C3D"/>
<path d="M1.44324 4.0005C2.46602 4.0005 2.66727 4.3245 2.66727 4.7625V20.5755H1.44324C0.767617 20.5755 0.219211 20.004 0.219211 19.2982V4.7625C0.201242 4.3125 0.42046 4.0005 1.44324 4.0005ZM1.44324 3.7905C0.646867 3.79125 -8.22241e-06 3.96225 -8.22241e-06 4.7625V19.2795C-0.00271862 19.4781 0.0327608 19.6752 0.104331 19.8591C0.175902 20.0431 0.282109 20.2103 0.416671 20.3507C0.551233 20.4911 0.711416 20.6019 0.887743 20.6766C1.06407 20.7513 1.25296 20.7883 1.44324 20.7855H2.88649V4.7625C2.87499 3.9435 2.2468 3.7905 1.44324 3.7905ZM21.5524 4.0005C22.4839 4.0005 22.7765 4.191 22.7765 4.725V19.3185C22.7765 20.0235 22.2288 20.5957 21.5524 20.5957H20.3284V4.725C20.3104 4.17225 20.6209 4.0005 21.5524 4.0005ZM21.5524 3.7905C20.7489 3.7905 20.1092 3.9045 20.1092 4.72425V20.8042H21.5524C22.356 20.8042 22.9957 20.1292 22.9957 19.2982V4.7055C22.9777 3.88575 22.338 3.7905 21.5524 3.7905Z" fill="#D44C3D"/>
<path d="M21.5524 20.7862H20.1092V4.72498C20.1092 3.88648 20.7561 3.79123 21.5524 3.79123C22.3488 3.79123 22.9957 3.90523 22.9957 4.72498V19.3185C22.9876 19.7117 22.8318 20.0859 22.5618 20.3605C22.2919 20.635 21.9294 20.7879 21.5524 20.7862Z" fill="#D44C3D"/>
<path opacity="0.08" d="M15.3971 20.7863L0.12793 5.4L0.931492 5.74275L11.569 13.728L22.995 4.9725V19.3185C22.9942 19.5151 22.9562 19.7097 22.8832 19.8909C22.8102 20.0722 22.7035 20.2366 22.5694 20.3748C22.4353 20.5129 22.2764 20.622 22.1017 20.6959C21.9271 20.7697 21.7401 20.8068 21.5517 20.805L15.3971 20.7863Z" fill="#221F1F"/>
<path d="M11.4714 14.235L0.621129 6.02101C-0.0257463 5.52601 -0.201121 4.57351 0.273972 3.90601C0.749066 3.23851 1.66116 3.08626 2.31954 3.58201L11.4886 10.5383L20.7123 3.48751C21.3592 2.99251 22.2469 3.14476 22.7213 3.83026C23.1956 4.50526 23.0497 5.43151 22.3928 5.92651L11.4714 14.235Z" fill="#D44C3D"/>
<path d="M21.5524 3.42916C21.9362 3.42916 22.3193 3.61966 22.5572 3.96316C22.9411 4.53466 22.8304 5.33566 22.2841 5.76316L11.4712 13.9689L0.748934 5.85016C0.201247 5.43016 0.0546219 4.61041 0.431247 4.05016C0.650466 3.70741 1.035 3.49741 1.45403 3.49741C1.72715 3.49741 1.98375 3.57391 2.18428 3.74491L11.334 10.6824L11.4619 10.7589L11.5898 10.6824L20.8042 3.63766C21.0414 3.50416 21.2786 3.42766 21.5532 3.42766L21.5524 3.42916ZM21.5524 3.20041C21.2599 3.20041 20.9487 3.27691 20.7115 3.48541L11.4885 10.5377L2.30143 3.56266C2.06425 3.37216 1.75375 3.27766 1.44325 3.27766C0.98684 3.29641 0.530434 3.50641 0.255872 3.90766C-0.200534 4.58266 -0.0172531 5.50891 0.620997 6.00391L11.4712 14.2352L22.3927 5.92516C22.6999 5.69048 22.9065 5.33926 22.9679 4.94717C23.0293 4.55507 22.9407 4.15348 22.7211 3.82891C22.4286 3.42841 21.9909 3.19891 21.5524 3.19891V3.20041Z" fill="#D44C3D"/>
</g>
<defs>
<clipPath id="clip0_29_66">
<rect width="23" height="24" fill="white"/>
</clipPath>
</defs>
</svg>
