<svg width="21" height="19" viewBox="0 0 21 19" fill="none" xmlns="http://www.w3.org/2000/svg">
<path d="M20.0313 13.7913C20.9552 14.6658 21.6271 15.6923 20.0733 17.4032C18.6035 19 17.5116 19 16.2098 19C13.0182 19 8.31487 15.3501 6.00518 13.221C3.77949 11.1299 0 6.75769 0 3.6781C0 2.53752 0.545926 1.43495 1.97373 0.598516C3.44353 -0.275934 4.82934 -0.237915 5.96319 1.01673C6.88706 2.04326 9.36473 4.51453 7.81094 6.41551C6.76108 7.67016 6.88706 7.63214 7.89493 8.65867C8.94478 9.72322 10.0366 10.7497 11.6324 12.0424C12.5143 12.6507 12.3463 12.7648 13.9421 11.7763C15.7899 10.6357 19.1074 13.0309 20.0313 13.7913Z" fill="#00A6FF"/>
</svg>
