<svg width="20" height="20" viewBox="0 0 20 20" fill="none" xmlns="http://www.w3.org/2000/svg">
<g clip-path="url(#clip0_29_96)">
<path d="M9.51507 0.0115662C4.23309 0.263064 0.0648636 4.66193 0.0808871 9.94989C0.0857659 11.5605 0.474588 13.0806 1.16049 14.4238L0.107386 19.5357C0.0504185 19.8123 0.299812 20.0544 0.574508 19.9893L5.58356 18.8026C6.87046 19.4436 8.31593 19.8139 9.84572 19.8372C15.2444 19.9197 19.746 15.633 19.9142 10.2363C20.0946 4.45142 15.3202 -0.264899 9.51507 0.0115662ZM15.4919 15.4111C14.025 16.8781 12.0746 17.686 10 17.686C8.7853 17.686 7.62233 17.4134 6.5433 16.8759L5.84572 16.5284L2.77466 17.256L3.4211 14.118L3.07743 13.445C2.51728 12.348 2.23325 11.1617 2.23325 9.91918C2.23325 7.84459 3.04113 5.89421 4.50807 4.42722C5.96191 2.97338 7.94414 2.15236 10.0002 2.15236C12.0747 2.15241 14.025 2.96028 15.492 4.42717C16.9589 5.89412 17.7668 7.84449 17.7668 9.91904C17.7668 11.9751 16.9458 13.9573 15.4919 15.4111Z" fill="#7AD06D"/>
<path d="M14.814 12.0703L12.8926 11.5186C12.64 11.4461 12.368 11.5178 12.184 11.7053L11.7141 12.184C11.516 12.3858 11.2154 12.4507 10.9532 12.3446C10.0443 11.9768 8.13235 10.2769 7.64408 9.42657C7.50322 9.18129 7.52651 8.87464 7.69947 8.65084L8.10967 8.12015C8.27039 7.91222 8.3043 7.63298 8.19802 7.39263L7.38967 5.56437C7.19605 5.12647 6.63647 4.999 6.27089 5.30818C5.73465 5.76172 5.0984 6.45092 5.02105 7.21446C4.88469 8.56063 5.46201 10.2576 7.64518 12.2952C10.1673 14.6492 12.1871 14.9602 13.5021 14.6417C14.248 14.461 14.8441 13.7368 15.2202 13.1437C15.4767 12.7394 15.2742 12.2025 14.814 12.0703Z" fill="#7AD06D"/>
</g>
<defs>
<clipPath id="clip0_29_96">
<rect width="20" height="20" fill="white"/>
</clipPath>
</defs>
</svg>
